<?xml version="1.0" encoding="utf-8"?>
<!-- Generator: Adobe Illustrator 24.3.0, SVG Export Plug-In . SVG Version: 6.00 Build 0)  -->
<svg version="1.1" id="Layer_1" xmlns="http://www.w3.org/2000/svg" xmlns:xlink="http://www.w3.org/1999/xlink" x="0px" y="0px"
	 viewBox="0 0 150 150" style="enable-background:new 0 0 150 150;" xml:space="preserve">
<style type="text/css">
	.st0{fill:#97D4C5;}
</style>
<g>
	<g>
		<g>
			<g>
				<g>
					<g>
						<g>
							<g>
								<path class="st0" d="M82.67,90.58c-0.17,0-0.32-0.14-0.32-0.32v-3.7c0-0.17,0.14-0.32,0.32-0.32h3.71
									c0.17,0,0.32,0.14,0.32,0.32v3.7c0,0.18-0.14,0.32-0.32,0.32H82.67z"/>
							</g>
						</g>
						<g>
							<g>
								<path class="st0" d="M73.35,90.58c-0.17,0-0.32-0.14-0.32-0.32v-3.7c0-0.17,0.14-0.32,0.32-0.32h3.7
									c0.17,0,0.32,0.14,0.32,0.32v3.7c0,0.18-0.14,0.32-0.32,0.32H73.35z"/>
							</g>
						</g>
						<g>
							<g>
								<path class="st0" d="M63.87,90.58c-0.17,0-0.32-0.14-0.32-0.32v-3.7c0-0.17,0.14-0.32,0.32-0.32h3.7
									c0.17,0,0.32,0.14,0.32,0.32v3.7c0,0.18-0.14,0.32-0.32,0.32H63.87z"/>
							</g>
						</g>
						<g>
							<g>
								<path class="st0" d="M82.67,82.89c-0.17,0-0.32-0.14-0.32-0.32v-3.7c0-0.17,0.14-0.32,0.32-0.32h3.71
									c0.17,0,0.32,0.14,0.32,0.32v3.7c0,0.17-0.14,0.32-0.32,0.32H82.67z"/>
							</g>
						</g>
						<g>
							<g>
								<path class="st0" d="M73.35,82.89c-0.17,0-0.32-0.14-0.32-0.32v-3.7c0-0.17,0.14-0.32,0.32-0.32h3.7
									c0.17,0,0.32,0.14,0.32,0.32v3.7c0,0.17-0.14,0.32-0.32,0.32H73.35z"/>
							</g>
						</g>
						<g>
							<g>
								<path class="st0" d="M63.87,82.89c-0.17,0-0.32-0.14-0.32-0.32v-3.7c0-0.17,0.14-0.32,0.32-0.32h3.7
									c0.17,0,0.32,0.14,0.32,0.32v3.7c0,0.17-0.14,0.32-0.32,0.32H63.87z"/>
							</g>
						</g>
						<g>
							<g>
								<path class="st0" d="M82.67,75.19c-0.17,0-0.32-0.14-0.32-0.32v-3.7c0-0.17,0.14-0.32,0.32-0.32h3.71
									c0.17,0,0.32,0.14,0.32,0.32v3.7c0,0.18-0.14,0.32-0.32,0.32H82.67z"/>
							</g>
						</g>
						<g>
							<g>
								<path class="st0" d="M73.35,75.19c-0.17,0-0.32-0.14-0.32-0.32v-3.7c0-0.17,0.14-0.32,0.32-0.32h3.7
									c0.17,0,0.32,0.14,0.32,0.32v3.7c0,0.18-0.14,0.32-0.32,0.32H73.35z"/>
							</g>
						</g>
						<g>
							<g>
								<path class="st0" d="M63.87,75.19c-0.17,0-0.32-0.14-0.32-0.32v-3.7c0-0.17,0.14-0.32,0.32-0.32h3.7
									c0.17,0,0.32,0.14,0.32,0.32v3.7c0,0.18-0.14,0.32-0.32,0.32H63.87z"/>
							</g>
						</g>
					</g>
				</g>
				<g>
					<path class="st0" d="M89.44,59.36h-6.41c0,0.04,0,0.08,0,0.12c0,0.01,0,0.02,0,0.03c1.32,0.22,2.33,1.36,2.33,2.74
						c0,1.53-1.25,2.78-2.78,2.78c-1.53,0-2.78-1.25-2.78-2.78c0-0.39,0.08-0.76,0.23-1.1c-0.09-0.53-0.14-1.09-0.14-1.67
						c0-0.04,0-0.08,0-0.12H68.14c0,0.04,0,0.08,0,0.12c0,0.01,0,0.02,0,0.03c1.33,0.21,2.35,1.36,2.35,2.75
						c0,1.53-1.25,2.78-2.78,2.78c-1.53,0-2.78-1.25-2.78-2.78c0-0.37,0.08-0.73,0.21-1.06C65.05,60.66,65,60.08,65,59.48
						c0-0.04,0-0.08,0-0.12h-4.19c-1.73,0-3.14,1.41-3.14,3.14v29.69c0,1.73,1.41,3.14,3.14,3.14h28.63c1.73,0,3.14-1.41,3.14-3.14
						V62.5C92.58,60.77,91.17,59.36,89.44,59.36z M90.27,91.1c0,1.14-0.93,2.08-2.08,2.08H62.06c-1.14,0-2.08-0.93-2.08-2.08V68.92
						c0-0.41,0.34-0.75,0.75-0.75h28.79c0.41,0,0.75,0.34,0.75,0.75V91.1z"/>
				</g>
				<g>
					<path class="st0" d="M67.71,63.4c-0.6,0-1.08-0.49-1.4-1.42c-0.23-0.68-0.36-1.57-0.36-2.5c0-1.89,0.55-3.92,1.76-3.92
						c0.86,0,1.5,1.06,1.7,2.83c0.01,0.06-0.01,0.12-0.05,0.17c-0.04,0.04-0.1,0.07-0.16,0.07h-0.81c-0.11,0-0.2-0.08-0.21-0.19
						c-0.11-0.86-0.33-1.37-0.46-1.57c-0.19,0.27-0.53,1.13-0.53,2.61c0,0.54,0.05,1.05,0.14,1.51c0.11,0.57,0.28,0.94,0.39,1.1
						c0.1-0.15,0.25-0.47,0.36-0.97c0.01-0.06,0.06-0.12,0.12-0.15c0.03-0.01,0.06-0.02,0.09-0.02c0.03,0,0.07,0.01,0.1,0.02
						c0.36,0.19,0.63,0.52,0.73,0.91c0.01,0.04,0.01,0.08,0,0.12C68.78,62.92,68.3,63.4,67.71,63.4z"/>
				</g>
				<g>
					<path class="st0" d="M82.6,63.4c-0.6,0-1.08-0.49-1.4-1.42c-0.23-0.68-0.36-1.57-0.36-2.5c0-1.89,0.55-3.92,1.76-3.92
						c0.86,0,1.5,1.06,1.7,2.83c0.01,0.06-0.01,0.12-0.05,0.17c-0.04,0.04-0.1,0.07-0.16,0.07h-0.81c-0.11,0-0.2-0.08-0.21-0.19
						c-0.11-0.86-0.33-1.37-0.46-1.57c-0.19,0.27-0.53,1.13-0.53,2.61c0,0.54,0.05,1.05,0.14,1.51c0.11,0.57,0.28,0.94,0.39,1.1
						c0.1-0.15,0.25-0.47,0.36-0.97c0.01-0.06,0.06-0.12,0.12-0.15c0.03-0.01,0.06-0.02,0.09-0.02c0.03,0,0.07,0.01,0.1,0.02
						c0.36,0.19,0.63,0.52,0.73,0.91c0.01,0.04,0.01,0.08,0,0.12C83.68,62.92,83.2,63.4,82.6,63.4z"/>
				</g>
			</g>
		</g>
	</g>
	<path class="st0" d="M101.1,22.65H49.14c-4.33,0-7.86,3.53-7.86,7.86v89.87c0,4.33,3.53,7.86,7.86,7.86h51.96
		c4.33,0,7.86-3.53,7.86-7.86V30.52C108.97,26.18,105.44,22.65,101.1,22.65z M68.6,29.05h13.05c0.59,0,1.03,0.64,1.03,1.5
		c0,0.85-0.44,1.5-1.03,1.5H68.6c-0.59,0-1.03-0.64-1.03-1.5C67.57,29.7,68.01,29.05,68.6,29.05z M78.64,122.95
		c0,0.63-0.51,1.14-1.14,1.14h-4.75c-0.63,0-1.14-0.51-1.14-1.14v-4.75c0-0.63,0.51-1.14,1.14-1.14h4.75c0.63,0,1.14,0.51,1.14,1.14
		V122.95z M105.47,112.7c0,0.27-0.22,0.49-0.49,0.49h-59.7c-0.27,0-0.5-0.22-0.5-0.49V37.14c0-0.27,0.22-0.5,0.5-0.5h59.7
		c0.27,0,0.49,0.22,0.49,0.5V112.7z"/>
</g>
</svg>
