<?xml version="1.0" encoding="utf-8"?>
<!-- Generator: Adobe Illustrator 24.3.0, SVG Export Plug-In . SVG Version: 6.00 Build 0)  -->
<svg version="1.1" id="Layer_1" xmlns="http://www.w3.org/2000/svg" xmlns:xlink="http://www.w3.org/1999/xlink" x="0px" y="0px"
	 viewBox="0 0 150 150" style="enable-background:new 0 0 150 150;" xml:space="preserve">
<style type="text/css">
	.st0{fill:#97D4C5;}
</style>
<g>
	<g>
		<path class="st0" d="M75.9,102.5c-0.3,0-0.5-0.1-0.7-0.2L26.4,71.5l1.4-2.3l48,30.3l13.7-8.6l1.4,2.3l-14.4,9.1
			C76.4,102.4,76.2,102.5,75.9,102.5z"/>
	</g>
	<g>
		
			<rect x="105.1" y="74.7" transform="matrix(0.8464 -0.5326 0.5326 0.8464 -22.7304 73.3018)" class="st0" width="21.2" height="2.7"/>
	</g>
	<g>
		<path class="st0" d="M124.7,125.9H27.1c-0.7,0-1.4-0.6-1.4-1.4V70.4c0-0.5,0.2-0.9,0.6-1.1l14.5-9.1l1.4,2.3l-13.8,8.7v52.1h94.8
			V71.1l-13.8-8.7l1.4-2.3l14.5,9.1c0.4,0.2,0.6,0.7,0.6,1.1v54.2C126,125.3,125.4,125.9,124.7,125.9z"/>
	</g>
	<g>
		
			<rect x="109.8" y="102" transform="matrix(0.4706 -0.8824 0.8824 0.4706 -44.7064 160.1956)" class="st0" width="2.7" height="30.7"/>
	</g>
	<g>
		
			<rect x="25.3" y="116" transform="matrix(0.8827 -0.4699 0.4699 0.8827 -50.3754 32.8842)" class="st0" width="30.7" height="2.7"/>
	</g>
	<g>
		<path class="st0" d="M43,74.1h-2.7V34.3c0-3.2-2.6-5.9-5.9-5.9c-3.2,0-5.9,2.6-5.9,5.9v4.1h7.7V41h-9c-0.7,0-1.4-0.6-1.4-1.4v-5.4
			c0-4.7,3.9-8.6,8.6-8.6s8.6,3.9,8.6,8.6V74.1z"/>
	</g>
	<g>
		<path class="st0" d="M111.6,72.3h-2.7v-38c0-3.2-2.6-5.9-5.9-5.9H34.4v-2.7H103c4.7,0,8.6,3.9,8.6,8.6L111.6,72.3L111.6,72.3z"/>
	</g>
	<g>
		<path class="st0" d="M86.2,68.1c-0.6,0-1.2-0.2-1.9-0.7l-7-4.7H57.8c-0.7,0-1.4-0.6-1.4-1.4V43.3c0-0.7,0.6-1.4,1.4-1.4h19.4
			l7-4.8c0.6-0.4,1.3-0.6,2.1-0.6c0.5,0,1.1,0.1,1.6,0.4c1.2,0.6,1.9,1.9,1.9,3.2v24.4c0,1.3-0.7,2.5-1.9,3.2
			C87.5,68,87,68.1,86.2,68.1z M59.2,60h18.5c0.3,0,0.5,0.1,0.8,0.2l7.3,5c0.3,0.2,0.4,0.2,0.4,0.2c0.3,0,0.3,0,0.5-0.1
			c0.3-0.2,0.5-0.4,0.5-0.8V40.1c0-0.3-0.2-0.6-0.5-0.8c-0.4-0.2-0.7-0.1-0.9,0l-7.3,5c-0.2,0.2-0.5,0.2-0.8,0.2H59.2V60z"/>
	</g>
	<g>
		<path class="st0" d="M57.8,59.1h-3.6c-2.7,0-5-2.2-5-5v-3.6c0-2.7,2.2-5,5-5h3.6v2.7h-3.6c-1.2,0-2.3,1-2.3,2.3v3.6
			c0,1.2,1,2.3,2.3,2.3h3.6V59.1z"/>
	</g>
	<g>
		<path class="st0" d="M74.1,75.4h-7.2c-0.5,0-1-0.3-1.2-0.8l-5.4-12.6l2.5-1.1l5.1,11.8h4.5l-3.1-10.9c0-0.1-0.1-0.2-0.1-0.4V50.5
			h2.7v10.6l3.6,12.5c0.1,0.4,0,0.8-0.2,1.2C74.9,75.2,74.5,75.4,74.1,75.4z"/>
	</g>
	<g>
		<path class="st0" d="M88.6,60.9v-2.7c3.2,0,5.9-2.6,5.9-5.9s-2.6-5.9-5.9-5.9v-2.7c4.7,0,8.6,3.9,8.6,8.6S93.3,60.9,88.6,60.9z"/>
	</g>
	<g>
		<path class="st0" d="M98.5,64.6l-1.7-2.1c3.1-2.5,4.9-6.2,4.9-10.2s-1.8-7.7-4.9-10.2l1.7-2.1c3.7,3,5.9,7.5,5.9,12.3
			S102.2,61.6,98.5,64.6z"/>
	</g>
	<g>
		<path class="st0" d="M106.6,107.9c-0.1,0-0.2,0-0.3,0c-0.4-0.1-0.7-0.3-0.9-0.6l-4.7-7.8l-4.2,2.8c-0.4,0.3-1,0.3-1.4,0.1
			c-0.4-0.2-0.7-0.7-0.7-1.2V79.4c0-0.5,0.3-1,0.8-1.2c0.5-0.2,1-0.2,1.4,0.2L112.9,91c0.4,0.3,0.6,0.8,0.5,1.3
			c-0.1,0.5-0.4,0.9-0.9,1.1l-3.8,1.3l4.5,7.6c0.4,0.6,0.2,1.4-0.4,1.8l-5.4,3.6C107.1,107.8,106.9,107.9,106.6,107.9z M101.2,96.1
			c0.1,0,0.2,0,0.3,0c0.4,0.1,0.7,0.3,0.9,0.6l4.7,7.8l3.2-2.1l-4.8-7.9c-0.2-0.3-0.3-0.8-0.1-1.2c0.1-0.4,0.5-0.7,0.8-0.8l3-1
			l-12.1-9.4v16.4l3.3-2.2C100.7,96.2,100.9,96.1,101.2,96.1z"/>
	</g>
	<g>
		<rect x="94.4" y="68.6" class="st0" width="2.7" height="5.4"/>
	</g>
	<g>
		
			<rect x="87.4" y="72.6" transform="matrix(0.4999 -0.8661 0.8661 0.4999 -20.8835 114.5474)" class="st0" width="2.7" height="5.4"/>
	</g>
	<g>
		<rect x="86" y="82.1" transform="matrix(0.866 -0.5001 0.5001 0.866 -29.8543 55.5696)" class="st0" width="5.4" height="2.7"/>
	</g>
	<g>
		<rect x="100.1" y="74" transform="matrix(0.866 -0.5001 0.5001 0.866 -23.9055 61.5217)" class="st0" width="5.4" height="2.7"/>
	</g>
	<g>
		<rect x="56" y="79.9" class="st0" width="7.2" height="2.7"/>
	</g>
	<g>
		<rect x="66.9" y="79.9" class="st0" width="12.6" height="2.7"/>
	</g>
	<g>
		<rect x="66.9" y="87.1" class="st0" width="18.1" height="2.7"/>
	</g>
</g>
</svg>
