<?xml version="1.0" encoding="utf-8"?>
<!-- Generator: Adobe Illustrator 24.3.0, SVG Export Plug-In . SVG Version: 6.00 Build 0)  -->
<svg version="1.1" id="Layer_1" xmlns="http://www.w3.org/2000/svg" xmlns:xlink="http://www.w3.org/1999/xlink" x="0px" y="0px"
	 viewBox="0 0 150 150" style="enable-background:new 0 0 150 150;" xml:space="preserve">
<style type="text/css">
	.st0{fill:#97D4C4;}
</style>
<g>
	<path class="st0" d="M31.56,118.58c-0.96-0.4-1.76-1.02-2.47-1.9c-1.06-1.32-1.88-3.27-2.41-5.69c-0.53-2.42-0.77-5.31-0.77-8.48
		c0-7.45,1.33-16.41,3.07-24.69c1.74-8.28,3.88-15.89,5.45-20.69c0.59-1.8,1.71-3.23,3.11-4.23c1.39-0.99,3.06-1.53,4.69-1.53
		c0.9,0,1.8,0.16,2.65,0.5l23.82,9.36c2.9,1.12,4.89,4.18,4.88,7.45c0,1.17-0.25,2.35-0.79,3.5c-0.35,0.75-0.04,1.64,0.71,2
		c0.75,0.36,1.64,0.04,2-0.71c0.74-1.56,1.08-3.2,1.08-4.79c-0.01-4.45-2.64-8.59-6.78-10.24l-23.82-9.36
		c-1.22-0.48-2.49-0.7-3.75-0.7c-2.29,0-4.54,0.74-6.43,2.08c-1.89,1.34-3.42,3.3-4.22,5.73c-1.62,4.92-3.78,12.61-5.54,21.01
		c-1.76,8.4-3.13,17.51-3.13,25.3c0,4.42,0.43,8.42,1.55,11.71c0.56,1.64,1.3,3.11,2.28,4.34c0.98,1.22,2.21,2.2,3.67,2.8
		c0.77,0.31,1.64-0.05,1.96-0.82C32.69,119.77,32.32,118.9,31.56,118.58z"/>
	<path class="st0" d="M43.94,23.73c0,0.02,0,0.13,0,0.34c0,0.96,0.08,3.8,0.95,7.05c0.44,1.63,1.08,3.36,2.04,5.02
		c0.96,1.65,2.23,3.22,3.93,4.47l0.89-1.21l-0.95,1.16c1.07,0.87,1.72,1.8,2.13,2.77c0.41,0.97,0.57,1.98,0.57,2.99
		c0,1.51-0.37,2.98-0.75,4.06c-0.19,0.54-0.38,0.98-0.52,1.28c-0.07,0.15-0.13,0.26-0.17,0.34l-0.04,0.08L52,52.09l0.21,0.12
		L52,52.09v0l0.21,0.12L52,52.09l1.31,0.73l0.55-1.4c-3.76-1.49-5.98-3.84-7.38-6.63c-1.38-2.79-1.87-6.05-1.87-9.14
		c0-2.92,0.43-5.67,0.86-7.68c0.21-1,0.43-1.82,0.59-2.38c0.08-0.28,0.14-0.5,0.19-0.64l0.05-0.16l0.01-0.04l0-0.01
		c0.27-0.79-0.16-1.64-0.94-1.9c-0.79-0.27-1.64,0.16-1.9,0.94c-0.03,0.09-1.85,5.46-1.86,11.87c0,3.39,0.51,7.1,2.18,10.47
		c1.65,3.37,4.53,6.36,8.97,8.09c0.7,0.27,1.49-0.01,1.86-0.66c0.03-0.05,0.49-0.87,0.95-2.17c0.46-1.3,0.92-3.07,0.93-5.06
		c0-1.33-0.21-2.75-0.8-4.16c-0.59-1.4-1.56-2.77-3-3.93l-0.06-0.05c-1.31-0.96-2.32-2.19-3.12-3.56c-1.19-2.05-1.85-4.39-2.2-6.38
		c-0.35-1.98-0.39-3.6-0.39-4.19l0-0.19l0-0.04v-0.01c0.03-0.83-0.62-1.52-1.45-1.55C44.66,22.26,43.97,22.9,43.94,23.73z"/>
	<path class="st0" d="M86.3,39.3l0.02,0.02L86.3,39.3L86.3,39.3l0.02,0.02L86.3,39.3c-0.04,0.05-1.58,1.78-3.95,3.46
		c-1.18,0.84-2.57,1.66-4.08,2.27c-1.5,0.61-3.11,0.99-4.75,0.99c-0.39,0-0.78-0.02-1.18-0.07l-0.07-0.01
		c-0.25-0.02-0.5-0.02-0.75-0.02c-2.17,0-4.03,0.65-5.49,1.62c-2.21,1.46-3.57,3.53-4.41,5.22c-0.84,1.69-1.17,3.02-1.18,3.09
		c-0.18,0.73,0.21,1.47,0.91,1.75c2.19,0.86,4.32,1.25,6.33,1.25c3.45,0,6.53-1.14,9.15-2.78c3.93-2.47,6.9-6.07,8.92-9.04
		c2.02-2.97,3.09-5.34,3.11-5.4c0.34-0.76,0-1.64-0.75-1.98c-0.75-0.34-1.64,0-1.98,0.75l0,0c-0.08,0.17-1.92,4.16-5.17,8
		c-1.62,1.92-3.59,3.81-5.83,5.19c-2.24,1.38-4.71,2.26-7.45,2.26c-1.63,0-3.36-0.31-5.23-1.04l-0.55,1.4l1.46,0.35l-0.46-0.11
		l0.46,0.11l0,0l-0.46-0.11l0.46,0.11c0-0.03,0.54-2.09,1.85-4c0.65-0.96,1.49-1.88,2.52-2.54c1.03-0.66,2.24-1.09,3.8-1.09
		c0.18,0,0.36,0.01,0.55,0.02l0.1-1.5L72,48.93c0.51,0.06,1.02,0.09,1.52,0.09c2.14,0,4.16-0.51,5.96-1.24
		c2.7-1.1,4.94-2.72,6.53-4.06c1.59-1.34,2.52-2.41,2.55-2.45c0.54-0.63,0.48-1.57-0.15-2.12C87.79,38.61,86.84,38.68,86.3,39.3
		L86.3,39.3z"/>
	<path class="st0" d="M69.81,26.17l-1.5-0.07c0,0,0,0.1-0.02,0.31c-0.09,1.55-0.58,8.71-2.09,15.35c-0.75,3.32-1.77,6.52-3.04,8.74
		c-0.63,1.12-1.31,1.98-1.98,2.51c-0.68,0.54-1.29,0.77-1.99,0.77c-0.39,0-0.83-0.08-1.35-0.28c-0.8-0.32-1.23-0.7-1.51-1.14
		c-0.28-0.44-0.44-1-0.44-1.76c0-0.82,0.2-1.84,0.58-2.97c0.67-1.99,1.91-4.31,3.4-6.62c2.22-3.47,4.99-6.94,7.2-9.53
		c1.1-1.29,2.06-2.37,2.75-3.12c0.34-0.38,0.62-0.67,0.8-0.87c0.09-0.1,0.17-0.17,0.21-0.23l0.07-0.07L69.81,26.17l-1.5-0.07
		L69.81,26.17l-1.08-1.04c-0.02,0.02-3.91,4.07-7.83,9.21c-1.96,2.57-3.93,5.42-5.43,8.21c-0.75,1.4-1.39,2.78-1.85,4.13
		c-0.46,1.35-0.74,2.66-0.74,3.94c0,1.19,0.26,2.37,0.92,3.39c0.65,1.02,1.68,1.81,2.94,2.31c0.82,0.32,1.64,0.49,2.45,0.49
		c1.56,0.01,2.97-0.64,4.08-1.62c0.98-0.85,1.79-1.95,2.5-3.19c1.23-2.18,2.15-4.85,2.89-7.65c2.19-8.39,2.64-18.04,2.65-18.09
		c0.03-0.62-0.33-1.2-0.91-1.45c-0.57-0.25-1.24-0.11-1.67,0.34L69.81,26.17z"/>
	<path class="st0" d="M35.82,66.68l7.44,2.92c0.77,0.3,1.64-0.08,1.94-0.85c0.3-0.77-0.08-1.64-0.85-1.94l-7.44-2.92
		c-0.77-0.3-1.64,0.08-1.95,0.85C34.67,65.5,35.05,66.37,35.82,66.68"/>
	<path class="st0" d="M46.19,81.79l7.44,2.93c0.77,0.3,1.64-0.08,1.94-0.85c0.3-0.77-0.08-1.64-0.85-1.94L47.28,79
		c-0.77-0.3-1.64,0.08-1.95,0.85C45.04,80.62,45.42,81.49,46.19,81.79"/>
	<path class="st0" d="M30.27,94.65l4.1,1.61c0.77,0.3,1.64-0.08,1.95-0.85c0.3-0.77-0.08-1.64-0.85-1.95l-4.1-1.61
		c-0.77-0.3-1.64,0.08-1.95,0.85C29.12,93.47,29.5,94.34,30.27,94.65"/>
	<path class="st0" d="M63.28,71.33l3.34,1.31c0.77,0.3,1.64-0.08,1.95-0.85c0.3-0.77-0.08-1.64-0.85-1.94l-3.34-1.31
		c-0.77-0.3-1.64,0.08-1.95,0.85C62.12,70.15,62.5,71.02,63.28,71.33"/>
	<path class="st0" d="M32.06,122.35l1.31-0.74c-0.52-0.92-0.76-1.92-0.76-3.08c0-1.43,0.4-3.09,1.17-4.91
		c1.36-3.18,3.87-6.8,7.04-10.49c9.52-11.09,24.97-22.81,32.83-28.02c1.46-0.97,3.06-1.41,4.64-1.41c2.81,0,5.46,1.41,6.82,3.75
		l12.92,22.09c0.67,1.14,1,2.44,1,3.77c0,1.46-0.4,2.94-1.17,4.23c-0.77,1.29-1.9,2.39-3.39,3.13c-5.22,2.59-14.05,6.36-23.45,9.45
		c-9.39,3.1-19.41,5.53-26.84,5.52c-2.75,0-5.13-0.33-6.96-1.01c-1.84-0.69-3.09-1.67-3.86-3.02L32.06,122.35l-1.31,0.74
		c1.18,2.09,3.12,3.51,5.42,4.36c2.31,0.86,5.02,1.2,8,1.2c8.04-0.01,18.21-2.52,27.78-5.67c9.56-3.15,18.47-6.95,23.84-9.62
		c2.02-1,3.58-2.52,4.63-4.28c1.05-1.76,1.6-3.76,1.6-5.77c0-1.82-0.45-3.65-1.41-5.28L87.7,75.94c-1.96-3.34-5.62-5.23-9.41-5.23
		c-2.14,0-4.34,0.61-6.3,1.91c-6.14,4.08-16.6,11.87-25.61,20.41c-4.5,4.27-8.64,8.73-11.69,13.05c-1.53,2.16-2.78,4.29-3.67,6.37
		c-0.89,2.08-1.41,4.11-1.42,6.08c0,1.6,0.36,3.16,1.15,4.56L32.06,122.35z"/>
	<path class="st0" d="M101.78,54.76c-0.04,0.05-1.39,1.65-2.75,4.15c-1.35,2.51-2.75,5.93-2.76,9.71c0,1.2,0.15,2.44,0.49,3.68
		l1.45-0.4l-1.46,0.33c0.14,0.61,0.2,1.17,0.2,1.7c0,1.33-0.37,2.45-0.94,3.46c-0.86,1.5-2.22,2.69-3.39,3.48
		c-0.58,0.39-1.11,0.69-1.48,0.88c-0.19,0.1-0.33,0.17-0.43,0.21l-0.11,0.05l-0.02,0.01l0.03,0.07l-0.03-0.07l0,0l0.03,0.07
		l-0.03-0.07l0.57,1.39l1.29-0.76c-1.43-2.45-1.99-4.76-1.99-6.98c0-2.52,0.74-4.94,1.9-7.17c1.74-3.35,4.42-6.26,6.66-8.29
		c1.12-1.02,2.14-1.82,2.86-2.37c0.36-0.27,0.66-0.48,0.85-0.62c0.1-0.07,0.17-0.12,0.22-0.15l0.05-0.04l0.01-0.01
		c0.69-0.45,0.89-1.38,0.44-2.08c-0.45-0.69-1.38-0.89-2.08-0.44c-0.06,0.04-3.46,2.25-6.91,5.96c-1.72,1.86-3.46,4.09-4.79,6.64
		c-1.32,2.55-2.24,5.44-2.24,8.55c0,2.73,0.72,5.62,2.4,8.49c0.38,0.65,1.17,0.92,1.87,0.63c0.09-0.04,2.03-0.84,4.05-2.56
		c1.01-0.86,2.04-1.97,2.83-3.35c0.79-1.38,1.34-3.05,1.34-4.95c0-0.76-0.08-1.54-0.27-2.36l-0.02-0.07
		c-0.26-0.95-0.38-1.92-0.38-2.88c-0.01-3.01,1.17-6.04,2.39-8.28c0.61-1.12,1.22-2.05,1.67-2.69c0.23-0.32,0.42-0.57,0.54-0.73
		l0.15-0.18l0.03-0.04l0.01-0.01l-0.12-0.1l0.12,0.1l0,0l-0.12-0.1l0.12,0.1c0.53-0.63,0.45-1.58-0.18-2.11
		C103.26,54.05,102.31,54.13,101.78,54.76z"/>
	<path class="st0" d="M125.43,93.2L125.43,93.2c-0.15,0.03-1.76,0.31-3.96,0.31c-1.7,0-3.75-0.17-5.73-0.73
		c-1.99-0.56-3.88-1.49-5.39-2.99l-0.05-0.05c-2.14-1.94-4.6-2.66-6.8-2.65c-2.42,0-4.54,0.79-6.08,1.55
		c-1.54,0.76-2.5,1.51-2.55,1.56c-0.59,0.46-0.75,1.29-0.37,1.94c1.89,3.23,4.39,5.41,7.12,6.72c2.73,1.32,5.66,1.79,8.48,1.79
		c4.15,0,8.09-1.01,11.01-2.01c2.92-1,4.83-1.99,4.88-2.02c0.73-0.38,1.02-1.29,0.64-2.02c-0.38-0.74-1.29-1.02-2.02-0.64
		l-0.01,0.01c-0.17,0.09-2.01,1.02-4.71,1.92c-2.69,0.9-6.24,1.76-9.79,1.76c-2.49,0-4.96-0.42-7.18-1.49
		c-2.22-1.08-4.22-2.78-5.83-5.53l-1.29,0.76l0.93,1.18l-0.04-0.05l0.04,0.05v0l-0.04-0.05l0.04,0.05c0.05-0.04,0.89-0.68,2.15-1.29
		c1.26-0.61,2.94-1.18,4.62-1.18c1.59,0.01,3.19,0.45,4.79,1.88l1-1.12l-1.06,1.06c1.97,1.95,4.36,3.09,6.7,3.75
		c2.34,0.66,4.64,0.84,6.54,0.84c2.61,0,4.45-0.35,4.52-0.36c0.81-0.16,1.35-0.94,1.19-1.75C127.03,93.58,126.24,93.04,125.43,93.2z
		"/>
	<path class="st0" d="M120.59,72.68l-1.13-0.98c0,0-0.05,0.06-0.16,0.18c-0.81,0.92-4.62,5.15-9.16,9.1
		c-2.27,1.98-4.72,3.88-7.02,5.26c-2.3,1.39-4.47,2.2-5.98,2.19c-0.66,0-1.17-0.13-1.62-0.38c-0.45-0.25-0.86-0.64-1.25-1.3
		c-0.37-0.64-0.5-1.15-0.5-1.61c0-0.63,0.25-1.27,0.87-2.01c0.54-0.64,1.35-1.31,2.37-1.96c1.79-1.13,4.2-2.17,6.78-3.05
		c3.88-1.33,8.15-2.33,11.44-2.98c1.64-0.33,3.04-0.57,4.03-0.74c0.49-0.08,0.88-0.14,1.15-0.18c0.26-0.04,0.4-0.06,0.4-0.06
		L120.59,72.68l-1.13-0.98L120.59,72.68l-0.21-1.49c-0.04,0.01-7.16,1-14.37,3.09c-3.61,1.05-7.24,2.36-10.08,4.04
		c-1.42,0.84-2.66,1.78-3.59,2.89c-0.93,1.1-1.57,2.45-1.57,3.94c0,1.05,0.32,2.11,0.91,3.12c0.61,1.05,1.42,1.88,2.38,2.41
		c0.96,0.53,2.02,0.76,3.08,0.76c1.31,0,2.64-0.33,3.98-0.84c2.34-0.91,4.74-2.42,7.09-4.17c7.01-5.25,13.48-12.72,13.52-12.76
		c0.41-0.47,0.48-1.15,0.19-1.7c-0.3-0.55-0.91-0.86-1.53-0.77L120.59,72.68z"/>
	<path class="st0" d="M68.83,83.48l4.04,6.9c0.42,0.72,1.34,0.96,2.05,0.54c0.72-0.42,0.96-1.34,0.54-2.05l-4.04-6.9
		c-0.42-0.71-1.34-0.96-2.05-0.54C68.66,81.84,68.42,82.76,68.83,83.48"/>
	<path class="st0" d="M67.62,101.76l4.04,6.9c0.42,0.72,1.34,0.96,2.05,0.54c0.72-0.42,0.96-1.34,0.54-2.05l-4.04-6.9
		c-0.42-0.72-1.34-0.96-2.05-0.54C67.45,100.13,67.2,101.05,67.62,101.76"/>
	<path class="st0" d="M47.16,102.01l2.22,3.8c0.42,0.72,1.34,0.96,2.05,0.54c0.72-0.42,0.96-1.34,0.54-2.05l-2.22-3.8
		c-0.42-0.72-1.34-0.96-2.05-0.54C46.98,100.38,46.74,101.3,47.16,102.01"/>
	<path class="st0" d="M42.41,118.78l2.47,4.22c0.42,0.71,1.34,0.96,2.05,0.54c0.71-0.42,0.95-1.34,0.54-2.05L45,117.27
		c-0.42-0.71-1.34-0.96-2.05-0.54C42.24,117.15,42,118.07,42.41,118.78"/>
	<path class="st0" d="M87.52,104.11l1.81,3.1c0.42,0.71,1.34,0.95,2.05,0.54c0.71-0.42,0.96-1.34,0.54-2.05l-1.81-3.1
		c-0.42-0.71-1.34-0.96-2.05-0.54C87.34,102.48,87.1,103.4,87.52,104.11"/>
</g>
</svg>
