<?xml version="1.0" encoding="utf-8"?>
<!-- Generator: Adobe Illustrator 24.3.0, SVG Export Plug-In . SVG Version: 6.00 Build 0)  -->
<svg version="1.1" id="Layer_1" xmlns="http://www.w3.org/2000/svg" xmlns:xlink="http://www.w3.org/1999/xlink" x="0px" y="0px"
	 viewBox="0 0 150 150" style="enable-background:new 0 0 150 150;" xml:space="preserve">
<style type="text/css">
	.st0{fill:#97D4C4;}
</style>
<g>
	<path class="st0" d="M80.15,39.13c2-1.19,4.07-1.72,6.14-1.72c2.19,0,4.38,0.6,6.43,1.71c2.05,1.11,3.94,2.73,5.51,4.73
		c1.09,1.39,2.23,3.49,3.07,5.83c0.84,2.33,1.38,4.9,1.38,7.23c0,1.39-0.19,2.68-0.59,3.79c-0.41,1.12-1.01,2.05-1.87,2.8
		c-0.59,0.51-0.66,1.41-0.14,2c0.51,0.59,1.41,0.66,2,0.14c1.27-1.09,2.14-2.48,2.68-3.97c0.54-1.5,0.76-3.12,0.76-4.76
		c0-2.75-0.62-5.6-1.55-8.19c-0.93-2.59-2.17-4.91-3.5-6.62c-1.79-2.29-3.98-4.16-6.39-5.47c-2.42-1.31-5.07-2.05-7.78-2.05
		c-2.56,0-5.16,0.67-7.59,2.12c-0.67,0.4-0.89,1.27-0.49,1.94C78.6,39.31,79.47,39.53,80.15,39.13z"/>
	<path class="st0" d="M28.75,65.51l53.87-27.59c0.7-0.36,0.97-1.21,0.61-1.91c-0.36-0.7-1.21-0.97-1.91-0.62L27.46,62.98
		c-0.7,0.36-0.97,1.21-0.62,1.91C27.2,65.59,28.06,65.86,28.75,65.51"/>
	<path class="st0" d="M95.55,69.86l6.01-3.76c0.66-0.42,0.87-1.29,0.45-1.95c-0.42-0.67-1.29-0.87-1.96-0.45l-6,3.76
		c-0.66,0.42-0.87,1.29-0.45,1.95C94.02,70.07,94.89,70.27,95.55,69.86"/>
	<path class="st0" d="M46.93,100.26l20.77-12.99c0.66-0.41,0.87-1.29,0.45-1.95c-0.42-0.66-1.29-0.87-1.95-0.45L45.42,97.86
		c-0.66,0.41-0.87,1.29-0.45,1.95C45.39,100.48,46.26,100.68,46.93,100.26"/>
	<path class="st0" d="M48.29,99.52l53.5-33.48c0.7-0.44,0.92-1.37,0.48-2.07c-0.44-0.7-1.37-0.92-2.07-0.48L46.7,96.97
		c-0.7,0.44-0.91,1.37-0.48,2.07C46.67,99.74,47.59,99.96,48.29,99.52"/>
	<path class="st0" d="M39.54,110.76l34.27,5.52c0.35,0.06,0.71-0.02,1.02-0.2l62.85-38.1c0.53-0.32,0.81-0.94,0.7-1.55
		c-0.11-0.61-0.58-1.09-1.19-1.21l-41.97-8.07c-0.81-0.16-1.6,0.38-1.76,1.19c-0.16,0.81,0.38,1.6,1.19,1.76l38.14,7.33l-59.04,35.8
		l-33.73-5.43c-0.82-0.13-1.59,0.42-1.72,1.24C38.16,109.85,38.72,110.62,39.54,110.76z"/>
	<path class="st0" d="M39.61,107.79c-8.78,0-17.34-4.49-22.15-12.59c-1.94-3.26-2.85-6.83-2.86-10.36c0-6.93,3.54-13.68,9.93-17.48
		c2.42-1.43,4.9-2.07,7.39-2.07c2.66,0,5.32,0.74,7.83,2.09c2.5,1.35,4.83,3.31,6.78,5.72c2.74,3.36,4.52,8.47,4.51,13.25
		c0,2.41-0.44,4.73-1.37,6.7c-0.93,1.97-2.32,3.61-4.31,4.78c-2.24,1.28-4.44,1.8-6.53,1.8c-2.97,0-5.75-1.08-7.98-2.75
		c-2.23-1.66-3.87-3.9-4.57-6.04c-0.58-1.78-0.83-3.43-0.83-4.94c0-2.33,0.59-4.34,1.53-5.98c0.94-1.64,2.23-2.91,3.61-3.73
		c0.79-0.47,1.79-0.73,2.87-0.73c1.22,0,2.54,0.33,3.73,1c1.2,0.67,2.27,1.68,3.05,3.04c0.71,1.24,1.02,2.62,1.02,3.96
		c0,1.22-0.27,2.4-0.7,3.34c-0.43,0.94-1.02,1.63-1.57,1.94c-0.67,0.4-0.89,1.27-0.49,1.94c0.4,0.67,1.27,0.9,1.94,0.49
		c1.2-0.72,2.09-1.87,2.7-3.2c0.61-1.34,0.95-2.89,0.95-4.52c0-1.78-0.42-3.66-1.4-5.37c-1.04-1.82-2.5-3.2-4.12-4.11
		c-1.62-0.91-3.4-1.37-5.12-1.37c-1.53,0-3.03,0.36-4.32,1.13c-1.81,1.08-3.44,2.7-4.62,4.76c-1.18,2.06-1.91,4.57-1.91,7.39
		c0,1.83,0.3,3.78,0.98,5.82c0.92,2.8,2.91,5.44,5.56,7.43c2.65,1.98,6.01,3.31,9.68,3.31c2.57,0,5.29-0.66,7.94-2.18l0.01-0.01
		c2.52-1.47,4.32-3.6,5.46-6.03c1.14-2.43,1.64-5.15,1.64-7.91c-0.01-5.45-1.93-11.06-5.14-15.03c-2.17-2.67-4.78-4.88-7.64-6.42
		c-2.86-1.54-5.99-2.43-9.17-2.43c-2.98,0-6,0.78-8.84,2.47c-7.28,4.33-11.32,12.02-11.32,19.91c0,4.02,1.05,8.1,3.25,11.81
		c5.34,8.98,14.84,13.98,24.59,13.98c2.61,0,5.23-0.37,7.8-1.1L39.61,107.79z"/>
</g>
</svg>
