<?xml version="1.0" encoding="utf-8"?>
<!-- Generator: Adobe Illustrator 24.3.0, SVG Export Plug-In . SVG Version: 6.00 Build 0)  -->
<svg version="1.1" id="Layer_1" xmlns="http://www.w3.org/2000/svg" xmlns:xlink="http://www.w3.org/1999/xlink" x="0px" y="0px"
	 viewBox="0 0 150 150" style="enable-background:new 0 0 150 150;" xml:space="preserve">
<style type="text/css">
	.st0{fill:#97D4C4;}
</style>
<g>
	<path class="st0" d="M32.52,121.08L32.52,121.08c-0.13,0-1.78-0.04-3.21-0.5c-0.72-0.22-1.36-0.55-1.73-0.91
		c-0.19-0.18-0.32-0.36-0.41-0.55c-0.09-0.19-0.14-0.41-0.14-0.71c0-2.08,0-11.21,0-19.81c0-4.3,0-8.47,0-11.57c0-3.1,0-5.11,0-5.12
		c0-0.11-0.01-0.2-0.03-0.31l-0.73,0.15l0.73-0.12l-0.01-0.03l-0.73,0.15l0.73-0.12c0,0-0.01-0.07-0.01-0.18
		c0-0.25,0.05-0.63,0.32-0.98c0.13-0.18,0.33-0.37,0.66-0.57c0.33-0.19,0.82-0.39,1.51-0.52c2.2-0.42,6.65-0.92,11.82-0.92
		c4.45,0,9.44,0.36,14.07,1.41l0.33-1.46l-0.36,1.46c0.52,0.13,0.8,0.29,0.98,0.43c0.13,0.11,0.22,0.22,0.31,0.4
		c0.14,0.26,0.26,0.71,0.33,1.37c0.07,0.65,0.08,1.5,0.08,2.52c0,3.67,0,22.33,0,22.33c0,0.83,0.67,1.5,1.5,1.5
		c0.83,0,1.5-0.67,1.5-1.5c0,0,0-4.67,0-9.79s0-10.71,0-12.54c0-0.93-0.01-1.76-0.07-2.54c-0.1-1.15-0.3-2.23-0.96-3.2
		c-0.32-0.47-0.76-0.89-1.26-1.2c-0.5-0.31-1.07-0.53-1.68-0.68l-0.03-0.01c-4.93-1.11-10.12-1.48-14.73-1.48
		c-5.37,0-9.92,0.5-12.38,0.97c-0.97,0.19-1.78,0.48-2.45,0.87c-1.01,0.58-1.68,1.38-2.03,2.16c-0.36,0.78-0.44,1.49-0.44,1.99
		c0,0.41,0.05,0.68,0.07,0.76l1.47-0.31h-1.5c0,0,0,32.33,0,36.5c0,0.73,0.16,1.42,0.45,2.02c0.51,1.06,1.36,1.78,2.22,2.27
		c1.31,0.74,2.73,1.04,3.85,1.21c1.12,0.16,1.93,0.16,1.98,0.16c0.83,0,1.5-0.67,1.5-1.5C34.02,121.75,33.35,121.08,32.52,121.08z"
		/>
	<path class="st0" d="M56.03,79.75l1.15-0.14h-1.16L56.03,79.75l1.15-0.14h-1.16h0.5l-0.49-0.13l-0.01,0.13h0.5l-0.49-0.13
		l0.05,0.01l-0.05-0.02l0,0.01l0.05,0.01l-0.05-0.02c-0.01,0.01-0.05,0.12-0.29,0.32c-0.35,0.3-1.19,0.78-2.86,1.16
		c-1.67,0.39-4.18,0.68-7.8,0.68c-3.05,0-6.9-0.21-11.74-0.72c-0.82-0.09-1.56,0.51-1.65,1.33c-0.09,0.82,0.51,1.56,1.33,1.65
		c4.92,0.52,8.87,0.74,12.06,0.74c6.16-0.01,9.46-0.77,11.43-1.78c0.98-0.51,1.63-1.11,2.02-1.71c0.39-0.61,0.49-1.19,0.49-1.53
		l-0.01-0.22c-0.1-0.82-0.84-1.41-1.67-1.31C56.52,78.19,55.93,78.93,56.03,79.75z"/>
	<path class="st0" d="M43.5,79.8l-0.01-0.07c-0.05-0.35-0.27-1.95-0.27-3.5c0-0.83,0.07-1.64,0.21-2.15
		c0.07-0.25,0.15-0.41,0.18-0.45l0.01-0.01l-0.28-0.26l0.11,0.36c0.09-0.03,0.17-0.09,0.17-0.1l-0.28-0.26l0.11,0.36
		c0.79-0.23,1.25-1.07,1.02-1.86c-0.23-0.79-1.07-1.25-1.86-1.02c-0.65,0.19-1.14,0.63-1.44,1.07c-0.46,0.68-0.64,1.38-0.77,2.11
		c-0.12,0.73-0.16,1.48-0.16,2.21c0,2.06,0.31,3.99,0.32,4.04c0.13,0.82,0.9,1.38,1.71,1.25C43.07,81.39,43.63,80.62,43.5,79.8z"/>
	<path class="st0" d="M42.27,50.66l-1.34-0.68c-0.02,0.03-1.34,2.64-2.67,6.12c-0.67,1.74-1.33,3.7-1.84,5.68
		c-0.51,1.98-0.86,3.97-0.86,5.83c0,0.89,0.08,1.75,0.29,2.57c0.3,1.22,0.91,2.39,1.95,3.22c1.04,0.84,2.41,1.25,3.97,1.24
		c1.11,0,2.12-0.2,3-0.62c1.32-0.62,2.25-1.73,2.77-2.97c0.52-1.25,0.7-2.62,0.7-4.06c0-1.83-0.3-3.78-0.73-5.7
		c-1.31-5.74-3.85-11.23-3.87-11.28c-0.24-0.52-0.76-0.86-1.34-0.87c-0.57-0.01-1.11,0.31-1.37,0.82L42.27,50.66l-1.36,0.63
		l0.04,0.1c0.23,0.51,1.32,2.97,2.34,6.04c1.02,3.06,1.96,6.76,1.95,9.58c0,0.79-0.07,1.5-0.21,2.09c-0.21,0.9-0.56,1.51-1.01,1.89
		c-0.23,0.2-0.5,0.35-0.86,0.47c-0.36,0.12-0.81,0.19-1.38,0.19c-0.71,0-1.23-0.12-1.61-0.29c-0.56-0.26-0.88-0.6-1.17-1.21
		c-0.28-0.6-0.43-1.48-0.43-2.54c0-1.47,0.3-3.26,0.77-5.09c0.7-2.74,1.78-5.56,2.67-7.68c0.45-1.06,0.85-1.95,1.14-2.56
		c0.15-0.31,0.26-0.55,0.34-0.71l0.09-0.19l0.03-0.06L42.27,50.66l-1.36,0.63L42.27,50.66z"/>
	<path class="st0" d="M69.27,21.66l-1.34-0.68c-0.02,0.03-1.34,2.64-2.67,6.12c-0.67,1.74-1.33,3.7-1.84,5.68
		c-0.51,1.98-0.86,3.97-0.86,5.83c0,0.89,0.08,1.75,0.29,2.57c0.3,1.22,0.91,2.39,1.95,3.22c1.04,0.84,2.41,1.25,3.97,1.24
		c1.11,0,2.12-0.2,3-0.62c1.32-0.62,2.25-1.73,2.77-2.97c0.52-1.25,0.7-2.62,0.7-4.06c0-1.83-0.3-3.78-0.73-5.7
		c-1.31-5.74-3.85-11.23-3.87-11.28c-0.24-0.52-0.76-0.86-1.34-0.87c-0.57-0.01-1.11,0.31-1.37,0.82L69.27,21.66l-1.36,0.63
		l0.04,0.1c0.23,0.51,1.32,2.97,2.34,6.04c1.02,3.06,1.96,6.76,1.95,9.58c0,0.79-0.07,1.5-0.21,2.09c-0.21,0.9-0.56,1.51-1.01,1.89
		c-0.23,0.2-0.5,0.35-0.86,0.47c-0.36,0.12-0.81,0.19-1.38,0.19c-0.71,0-1.23-0.12-1.61-0.29c-0.56-0.26-0.88-0.6-1.17-1.21
		c-0.28-0.6-0.43-1.48-0.43-2.54c0-1.47,0.3-3.26,0.77-5.09c0.7-2.74,1.78-5.56,2.67-7.68c0.45-1.06,0.85-1.95,1.14-2.56
		c0.15-0.31,0.26-0.55,0.34-0.71l0.09-0.19l0.03-0.06L69.27,21.66l-1.36,0.63L69.27,21.66z"/>
	<path class="st0" d="M52.27,76.91V53.54l0-0.12l-1.2,0.09h1.2l0-0.09l-1.2,0.09h1.2h-0.5l0.5,0.06l0-0.06h-0.5l0.5,0.06l-0.02,0
		l0.02,0v0l-0.02,0l0.02,0c0.01-0.02,0.03-0.21,0.32-0.55c0.43-0.52,1.5-1.4,4.03-2.21c2.52-0.81,6.46-1.53,12.46-1.77
		c0.98-0.04,1.9-0.06,2.78-0.06c7.73-0.01,11.42,1.47,13.06,2.68c0.83,0.61,1.17,1.14,1.34,1.48c0.08,0.17,0.12,0.29,0.13,0.35
		l0.01,0.04l0.74-0.09l-0.74,0.03l0,0.06l0.74-0.09l-0.74,0.03l1.5-0.06h-1.5v10.62c0,0.83,0.67,1.5,1.5,1.5
		c0.83,0,1.5-0.67,1.5-1.5V53.41v-0.06c-0.01-0.16-0.06-0.75-0.43-1.52c-0.55-1.17-1.86-2.7-4.48-3.85c-2.62-1.16-6.56-2-12.63-2.01
		c-0.92,0-1.88,0.02-2.9,0.06c-9.08,0.37-13.85,1.77-16.54,3.32c-1.33,0.78-2.15,1.62-2.61,2.39c-0.46,0.77-0.55,1.44-0.55,1.76
		l0,0.14l1.5-0.12h-1.5v23.38c0,0.83,0.67,1.5,1.5,1.5C51.6,78.41,52.27,77.74,52.27,76.91z"/>
	<path class="st0" d="M85.97,52.5l0.64-0.21h-0.68C85.93,52.32,85.93,52.38,85.97,52.5l0.64-0.21h-0.68h0.1l-0.1-0.02l0,0.02h0.1
		l-0.1-0.02c-0.01,0,0.01,0.09-0.24,0.35c-0.36,0.38-1.41,1.08-3.81,1.64c-2.4,0.56-6.11,0.99-11.69,0.99
		c-3.2,0-7.02-0.14-11.56-0.47c-0.83-0.06-1.54,0.56-1.61,1.39c-0.06,0.83,0.56,1.54,1.39,1.6c4.6,0.33,8.49,0.48,11.78,0.48
		c8.16-0.01,12.62-0.86,15.25-1.99c1.31-0.57,2.19-1.23,2.75-1.95c0.56-0.72,0.75-1.5,0.74-2.03c0-0.35-0.07-0.6-0.11-0.72
		c-0.26-0.79-1.1-1.22-1.89-0.96C86.14,50.87,85.71,51.72,85.97,52.5z"/>
	<path class="st0" d="M70.88,51.22c0,0-0.01-0.06-0.02-0.18c-0.05-0.4-0.18-1.46-0.29-2.69c-0.11-1.23-0.21-2.64-0.21-3.7
		c0-0.54,0.03-0.99,0.07-1.21l0.02-0.1l0,0l-0.71-0.24l0.59,0.44c0.1-0.13,0.11-0.19,0.12-0.2l-0.71-0.24l0.59,0.44l-0.94-0.71
		l0.7,0.95c0.12-0.09,0.19-0.17,0.24-0.24l-0.94-0.71l0.7,0.95l-0.77-1.04l0.31,1.26c0.18-0.04,0.34-0.13,0.46-0.21l-0.77-1.04
		l0.31,1.26c0.8-0.2,1.29-1.02,1.09-1.82c-0.2-0.8-1.01-1.29-1.82-1.09c-0.36,0.09-0.64,0.29-0.82,0.48
		c-0.31,0.34-0.41,0.62-0.49,0.86c-0.12,0.37-0.16,0.7-0.19,1.07c-0.03,0.36-0.04,0.75-0.04,1.17c0,1.41,0.14,3.12,0.28,4.51
		c0.14,1.39,0.27,2.43,0.28,2.44c0.11,0.82,0.86,1.4,1.68,1.29C70.41,52.79,70.99,52.04,70.88,51.22z"/>
	<path class="st0" d="M104.39,71.6h-1.5c0,0.14-0.03,0.28-0.12,0.47c-0.16,0.32-0.57,0.78-1.25,1.23c-1.02,0.68-2.62,1.33-4.56,1.77
		c-1.95,0.45-4.24,0.71-6.69,0.71c-3.73,0-7.11-0.62-9.43-1.56c-1.16-0.46-2.04-1.01-2.55-1.5c-0.26-0.25-0.43-0.47-0.52-0.66
		c-0.09-0.19-0.12-0.33-0.12-0.47c0-0.14,0.03-0.28,0.12-0.47c0.16-0.32,0.56-0.78,1.25-1.23c1.02-0.68,2.62-1.33,4.56-1.77
		c1.94-0.45,4.24-0.71,6.69-0.71c3.74,0,7.11,0.62,9.43,1.56c1.16,0.46,2.04,1.01,2.55,1.5c0.26,0.25,0.43,0.47,0.52,0.66
		c0.09,0.19,0.12,0.33,0.12,0.47H104.39h1.5c0-0.65-0.17-1.27-0.45-1.83c-0.5-0.97-1.3-1.73-2.27-2.37
		c-1.46-0.96-3.34-1.68-5.54-2.2c-2.2-0.51-4.7-0.79-7.37-0.79c-4.07,0-7.75,0.65-10.55,1.77c-1.4,0.57-2.59,1.25-3.5,2.11
		c-0.46,0.43-0.84,0.92-1.13,1.47c-0.28,0.55-0.45,1.18-0.45,1.83c0,0.65,0.17,1.27,0.45,1.83c0.5,0.97,1.3,1.73,2.27,2.37
		c1.46,0.96,3.34,1.68,5.54,2.2c2.2,0.51,4.7,0.79,7.37,0.79c4.07,0,7.75-0.65,10.55-1.77c1.4-0.57,2.59-1.25,3.5-2.11
		c0.46-0.43,0.84-0.92,1.13-1.47c0.28-0.55,0.45-1.18,0.45-1.83H104.39z"/>
	<path class="st0" d="M116.86,88.24l-1.5,0.08l0,0.13c0,0.42-0.11,0.86-0.35,1.34c-0.42,0.84-1.32,1.81-2.67,2.75
		c-2.02,1.4-5.02,2.71-8.64,3.7c-3.62,0.99-7.87,1.68-12.43,1.92c-1.17,0.06-2.32,0.09-3.45,0.09c-6.22,0-11.77-0.91-15.66-2.39
		c-1.94-0.73-3.47-1.61-4.44-2.49c-0.49-0.44-0.84-0.88-1.07-1.29c-0.23-0.42-0.34-0.8-0.36-1.19l0-0.13c0-0.42,0.1-0.86,0.35-1.34
		c0.42-0.84,1.32-1.81,2.67-2.75c2.02-1.4,5.02-2.71,8.64-3.7c3.62-0.99,7.87-1.68,12.43-1.92c1.17-0.06,2.32-0.09,3.45-0.09
		c6.22,0,11.77,0.91,15.66,2.39c1.94,0.73,3.47,1.61,4.44,2.49c0.49,0.44,0.84,0.88,1.07,1.29c0.23,0.42,0.34,0.8,0.36,1.19
		L116.86,88.24l1.5-0.08c-0.04-0.88-0.31-1.72-0.73-2.48c-0.74-1.34-1.93-2.43-3.42-3.37c-2.24-1.4-5.18-2.47-8.65-3.21
		c-3.47-0.74-7.45-1.14-11.73-1.15c-1.18,0-2.39,0.03-3.61,0.09c-7.25,0.38-13.77,1.83-18.6,3.96c-2.42,1.06-4.41,2.29-5.88,3.72
		c-0.73,0.71-1.34,1.49-1.76,2.33c-0.43,0.84-0.68,1.76-0.68,2.7c0,0.1,0,0.19,0.01,0.29c0.04,0.88,0.31,1.72,0.73,2.48
		c0.74,1.34,1.93,2.43,3.42,3.37c2.23,1.4,5.18,2.47,8.65,3.21c3.47,0.74,7.45,1.14,11.73,1.15c1.18,0,2.39-0.03,3.61-0.09
		c7.25-0.38,13.78-1.83,18.6-3.96c2.41-1.06,4.41-2.29,5.88-3.72c0.73-0.71,1.34-1.49,1.77-2.33c0.43-0.84,0.68-1.76,0.68-2.7
		c0-0.09,0-0.19-0.01-0.29L116.86,88.24z"/>
	<path class="st0" d="M78.01,117.21l-1.5,0.08l0,0.19c0,1.02-0.43,2.09-1.39,3.23c-1.44,1.69-4.07,3.37-7.5,4.62
		c-3.42,1.26-7.63,2.12-12.19,2.36c-0.85,0.04-1.69,0.07-2.52,0.07c-5.59,0-10.6-1-14.11-2.6c-1.76-0.8-3.13-1.74-4.03-2.71
		c-0.9-0.98-1.33-1.93-1.38-2.9l0-0.19c0-1.02,0.43-2.09,1.39-3.23c1.44-1.69,4.07-3.37,7.5-4.62c3.42-1.26,7.63-2.12,12.19-2.36
		c0.85-0.04,1.69-0.07,2.52-0.07c5.59,0,10.6,1,14.11,2.6c1.76,0.8,3.13,1.74,4.03,2.71c0.9,0.98,1.33,1.93,1.38,2.9L78.01,117.21
		l1.5-0.08c-0.09-1.8-0.92-3.44-2.18-4.79c-1.9-2.03-4.76-3.55-8.25-4.62c-3.49-1.06-7.62-1.65-12.09-1.65
		c-0.88,0-1.77,0.02-2.68,0.07c-6.46,0.34-12.26,1.84-16.57,4.08c-2.15,1.12-3.94,2.44-5.24,3.95c-1.29,1.51-2.11,3.28-2.11,5.18
		c0,0.12,0,0.23,0.01,0.35c0.09,1.8,0.92,3.44,2.18,4.78c1.9,2.03,4.76,3.55,8.25,4.62c3.49,1.06,7.62,1.65,12.09,1.65
		c0.88,0,1.77-0.02,2.67-0.07c6.46-0.34,12.26-1.84,16.57-4.08c2.15-1.12,3.94-2.44,5.24-3.95c1.29-1.51,2.11-3.28,2.11-5.18
		c0-0.11,0-0.23-0.01-0.35L78.01,117.21z"/>
	<path class="st0" d="M59.43,108.53c0.67-0.9,1.84-1.86,3.47-2.73c2.44-1.31,5.88-2.43,9.96-3.2c4.09-0.77,8.84-1.2,13.94-1.2
		c1.53,0,3.1,0.04,4.69,0.12c9.08,0.45,17.25,2.18,23.03,4.55c2.89,1.18,5.17,2.52,6.65,3.86c0.74,0.67,1.28,1.33,1.61,1.94
		c0.34,0.62,0.48,1.17,0.48,1.71l0,0.15v0c-0.03,0.5-0.17,0.99-0.48,1.52c-0.53,0.92-1.6,1.92-3.19,2.84
		c-2.37,1.39-5.85,2.59-10.04,3.42c-4.2,0.83-9.12,1.3-14.44,1.3c-1.53,0-3.1-0.04-4.68-0.12c-4.92-0.25-9.57-0.86-13.72-1.76
		c-0.81-0.17-1.61,0.34-1.78,1.15c-0.17,0.81,0.34,1.61,1.15,1.78c4.32,0.93,9.12,1.57,14.2,1.82c1.64,0.08,3.25,0.12,4.83,0.12
		c8.37,0,15.83-1.11,21.38-3.05c2.77-0.98,5.08-2.15,6.79-3.59c0.86-0.72,1.57-1.51,2.09-2.4c0.52-0.88,0.84-1.87,0.89-2.89v0
		c0-0.1,0.01-0.2,0.01-0.3c0-1.11-0.31-2.18-0.85-3.16c-0.95-1.72-2.55-3.19-4.61-4.52c-3.1-1.99-7.3-3.66-12.28-4.93
		c-4.98-1.27-10.73-2.14-16.88-2.45c-1.64-0.08-3.25-0.12-4.84-0.12c-7.03,0-13.44,0.79-18.59,2.19c-2.58,0.7-4.84,1.56-6.74,2.57
		c-1.89,1.01-3.41,2.18-4.46,3.59c-0.49,0.67-0.36,1.61,0.31,2.1C57.99,109.33,58.93,109.19,59.43,108.53z"/>
</g>
</svg>
