<?xml version="1.0" encoding="utf-8"?>
<!-- Generator: Adobe Illustrator 24.3.0, SVG Export Plug-In . SVG Version: 6.00 Build 0)  -->
<svg version="1.1" id="Layer_1" xmlns="http://www.w3.org/2000/svg" xmlns:xlink="http://www.w3.org/1999/xlink" x="0px" y="0px"
	 viewBox="0 0 150 150" style="enable-background:new 0 0 150 150;" xml:space="preserve">
<style type="text/css">
	.st0{fill:#97D4C4;}
</style>
<g>
	<path class="st0" d="M107.49,131.9c-0.12-0.1-1.76-1.44-5.65-2.99l-0.02-0.01c-2.94-1.12-5.64-2.81-7.74-4.68
		c-2.1-1.87-3.57-3.94-4.12-5.64c-0.12-0.35-0.36-0.65-0.68-0.83c-0.79-0.45-1.81-1.19-2.96-2.13c-4.03-3.31-9.54-9.07-14-13.96
		c-2.23-2.45-4.21-4.69-5.62-6.32c-0.71-0.81-1.28-1.47-1.67-1.93c-0.39-0.46-0.6-0.7-0.6-0.7c-0.15-0.17-0.34-0.32-0.55-0.41
		l-0.03-0.01c-0.15-0.06-0.87-0.39-1.29-0.64c-0.4-0.24-0.87-0.28-1.3-0.12c-0.43,0.16-0.76,0.51-0.9,0.95
		c-0.02,0.09-0.23,0.52-0.58,1.04c-0.6,0.93-1.6,2.23-2.74,3.64c-3.45,4.24-8.33,9.53-9.23,10.51c-0.25,0.27-0.69,0.67-1.23,1.1
		c-0.81,0.65-1.82,1.42-2.82,2.23c-1,0.81-1.98,1.67-2.75,2.61l-0.1,0.14c-0.5,0.79-1.45,2.05-2.58,3.47
		c-1.7,2.13-3.85,4.66-5.71,6.79c-0.93,1.06-1.79,2.03-2.49,2.79c-0.69,0.76-1.25,1.33-1.48,1.54c-0.86,0.79-1.72,1.75-2.41,2.69
		c-0.35,0.47-0.65,0.95-0.88,1.43c-0.23,0.49-0.43,0.96-0.44,1.62c0,0.09,0,0.19,0.02,0.3l0,0c0.02,0.13,0.02,0.26,0.02,0.38
		c0,0.14-0.01,0.26-0.03,0.34l-0.04,0.11l0,0.01l0.1,0.07l-0.06-0.1l-0.04,0.04l0.1,0.07l-0.06-0.1l0.01,0.01l-0.01-0.01h0
		l0.01,0.01l-0.01-0.01c-0.01,0-0.04,0.02-0.13,0.02c-0.79,0.07-1.4,0.43-1.86,0.81c-0.69,0.57-1.17,1.23-1.6,1.77
		c-0.21,0.27-0.41,0.51-0.57,0.69c-0.17,0.18-0.3,0.29-0.36,0.32l0.77,1.29l0.19-1.49c-0.6-0.07-1.7-0.41-2.51-0.81
		c-0.4-0.2-0.74-0.42-0.9-0.56l-0.08-0.08l-0.01-0.01l0,0l-0.56,0.39h0.66c0-0.26-0.1-0.39-0.1-0.39l-0.56,0.39h0.66h-0.92l0.8,0.47
		c0.07-0.11,0.13-0.3,0.12-0.47h-0.92l0.8,0.47l-0.48-0.28l0.34,0.45c0.01,0,0.07-0.05,0.14-0.17l-0.48-0.28l0.34,0.45l-0.9-1.2
		l0.73,1.31c1.42-0.8,2.78-2.14,4.13-3.71c1.34-1.57,2.63-3.37,3.67-5.06c0.06-0.09,0.1-0.17,0.13-0.27
		c2.42-6.66,6.37-12.68,9.71-17c1.67-2.16,3.19-3.91,4.29-5.1c0.55-0.6,0.99-1.06,1.29-1.37c0.15-0.16,0.27-0.27,0.35-0.35
		l0.09-0.08l0.02-0.02c0.12-0.12,0.22-0.25,0.29-0.4c0,0,0.12-0.24,0.34-0.67c0.77-1.51,2.76-5.38,4.92-9.43
		c2.15-4.05,4.49-8.31,5.92-10.51c1.61-2.51,3.78-5.12,6.26-7.11c2.48-2,5.25-3.36,8.1-3.58l-0.12-1.5l-0.02,1.5
		c0.67,0.01,1.3,0.02,1.9,0.02c3.37,0,5.69-0.16,7.46-0.48c1.32-0.23,2.34-0.56,3.19-0.96c0.64-0.3,1.17-0.64,1.64-0.97
		c0.71-0.5,1.3-0.96,2.09-1.44c0.79-0.48,1.8-0.98,3.35-1.5c3.5-1.19,5.43-2.1,6.61-2.86c0.59-0.38,0.99-0.73,1.3-1.12
		c0.3-0.38,0.51-0.85,0.51-1.35c0-0.36-0.12-0.68-0.23-0.86l-1.29,0.77l1.37-0.62c-0.43-0.94-0.8-2.2-1.1-3.59
		c-0.91-4.18-1.17-9.55-1.17-12.16c0-0.52,0.01-0.93,0.02-1.18c0.02-0.28-0.05-0.55-0.18-0.79l-0.6,0.32l0.64-0.25l-0.04-0.08
		l-0.6,0.32l0.64-0.25l-0.24,0.09l0.25-0.08l0-0.01l-0.24,0.09l0.25-0.08l-0.02-0.07c-0.04-0.17-0.09-0.58-0.11-1.09
		c-0.03-0.52-0.04-1.16-0.04-1.89c0-2.41,0.14-5.74,0.29-8.93c0.14-3.2,0.29-6.27,0.29-8.26c0-0.28,0-0.54-0.01-0.78l-0.03-0.25
		c-0.22-1.12-0.32-2.16-0.32-3.14c0-2.91,0.85-5.19,1.78-6.74c0.46-0.77,0.94-1.35,1.3-1.7c0.18-0.17,0.33-0.29,0.4-0.33l0.03-0.02
		l-0.19-0.37l0.12,0.39l0.07-0.03l-0.19-0.37l0.12,0.39l-0.31-0.99v1.03c0.17,0,0.26-0.03,0.31-0.04l-0.31-0.99v1.03v-1.3
		l-0.58,1.16c0.23,0.12,0.44,0.14,0.58,0.14v-1.3l-0.58,1.16l0,0l0.36-0.73l-0.55,0.61c0.02,0.01,0.06,0.05,0.18,0.12l0.36-0.73
		l-0.55,0.61l0.14-0.16l-0.15,0.15l0.01,0.01l0.14-0.16l-0.15,0.15l0.04,0.05c0.1,0.12,0.31,0.44,0.52,0.84
		c0.31,0.61,0.65,1.44,0.9,2.31c0.25,0.87,0.41,1.78,0.41,2.54l0,0.23c-0.04,1.07-0.58,2.23-1.17,3.1c-0.29,0.43-0.58,0.79-0.8,1.03
		c-0.11,0.12-0.19,0.21-0.25,0.27l-0.06,0.06l-0.01,0.01l0.25,0.26l-0.25-0.26l0,0l0.25,0.26l-0.25-0.26
		c-0.24,0.23-0.4,0.54-0.45,0.87c-0.01,0.06-0.21,1.44-0.21,3.58c0,1.71,0.13,3.91,0.6,6.31c0.38,1.95,0.72,3.35,0.96,4.6
		c0.23,1.25,0.37,2.36,0.37,3.85c0,1.02-0.07,2.21-0.22,3.73l0,0.06c-0.03,0.49-0.05,0.98-0.05,1.46c0,3.87,0.95,7.29,1.92,10.18
		c0.49,1.45,0.98,2.76,1.37,3.92c0.39,1.16,0.67,2.17,0.76,2.96c0.3,2.4,1.35,4.43,2.3,5.88c0.96,1.45,1.83,2.33,1.88,2.38
		c0.1,0.1,0.21,0.18,0.33,0.25c0.04,0.02,0.44,0.24,1.02,0.47c0.59,0.22,1.34,0.48,2.24,0.49c0.29,0,0.6-0.03,0.93-0.12
		c0.8-0.23,1.26-1.06,1.03-1.85c-0.23-0.8-1.06-1.26-1.85-1.03l-0.11,0.01c-0.23,0.01-0.74-0.12-1.14-0.28
		c-0.2-0.08-0.37-0.16-0.49-0.22l-0.14-0.07L105.39,69l0,0l-0.73,1.31l1.06-1.06l0,0c-0.05-0.05-0.8-0.82-1.57-2.02
		c-0.78-1.2-1.55-2.81-1.75-4.48c-0.14-1.15-0.49-2.32-0.9-3.55c-1.25-3.7-3.14-8.09-3.13-13.15c0-0.42,0.01-0.84,0.04-1.27
		l-1.5-0.1l1.49,0.15c0.16-1.59,0.24-2.89,0.24-4.03c0-1.69-0.17-3.04-0.42-4.41c-0.26-1.37-0.59-2.75-0.96-4.62
		c-0.42-2.16-0.54-4.17-0.54-5.73c0-0.98,0.05-1.77,0.09-2.32c0.02-0.27,0.04-0.49,0.06-0.62l0.02-0.15l0-0.03l0,0l-1.48-0.22
		l1.03,1.09c0.05-0.05,0.78-0.74,1.54-1.87c0.75-1.13,1.59-2.72,1.68-4.65c0-0.12,0.01-0.24,0.01-0.35
		c-0.01-1.77-0.5-3.55-1.09-5.01c-0.3-0.73-0.62-1.37-0.94-1.9c-0.16-0.27-0.33-0.5-0.51-0.73c-0.2-0.22-0.38-0.44-0.79-0.66l0,0
		c-0.28-0.14-0.55-0.18-0.77-0.18c-0.33,0-0.55,0.08-0.74,0.15c-0.35,0.14-0.62,0.32-0.89,0.53c-0.48,0.38-0.96,0.88-1.46,1.53
		c-1.48,1.93-3.03,5.19-3.03,9.5c0,1.17,0.12,2.42,0.38,3.73l1.47-0.29l-1.5,0.04c0.01,0.21,0.01,0.44,0.01,0.71
		c0,1.87-0.14,4.93-0.28,8.13c-0.14,3.2-0.29,6.54-0.29,9.07c0,0.96,0.02,1.81,0.08,2.5c0.03,0.35,0.06,0.66,0.12,0.96
		c0.06,0.3,0.11,0.57,0.3,0.93l1.32-0.71l-1.5-0.08c-0.02,0.34-0.03,0.79-0.03,1.34c0,1.86,0.11,4.9,0.48,8.07
		c0.18,1.59,0.43,3.2,0.76,4.73c0.33,1.52,0.75,2.95,1.3,4.18l0.08,0.16l1.13-0.68h-1.33c0,0.24,0.08,0.49,0.2,0.68l1.13-0.68h-1.33
		h1.04l-0.97-0.38c-0.03,0.09-0.07,0.22-0.07,0.38h1.04l-0.97-0.38l0.48,0.19l-0.42-0.31l-0.06,0.12l0.48,0.19l-0.42-0.31L92,62.46
		c-0.15,0.15-0.64,0.53-1.65,1.02c-1.01,0.5-2.54,1.14-4.79,1.9c-2.05,0.69-3.42,1.42-4.45,2.1c-0.78,0.51-1.35,0.96-1.87,1.32
		c-0.79,0.53-1.47,0.91-2.98,1.24c-1.5,0.32-3.79,0.54-7.47,0.53c-0.58,0-1.2,0-1.85-0.02l-0.14,0c-3.65,0.29-6.95,1.98-9.75,4.23
		c-2.8,2.26-5.14,5.09-6.9,7.83c-0.88,1.37-2.01,3.34-3.23,5.54c-3.66,6.61-8.09,15.33-8.09,15.34l1.34,0.68l-1.04-1.08
		c-0.04,0.04-2.86,2.77-6.33,7.26c-3.47,4.49-7.58,10.72-10.16,17.81l1.41,0.51l-1.28-0.79c-0.96,1.56-2.17,3.26-3.39,4.69
		c-1.21,1.43-2.47,2.59-3.31,3.04l-0.17,0.11c-0.24,0.18-0.47,0.41-0.65,0.72c-0.18,0.3-0.29,0.69-0.29,1.05
		c0,0.49,0.17,0.9,0.36,1.2c0.34,0.53,0.75,0.86,1.19,1.16c0.66,0.45,1.42,0.8,2.2,1.09c0.78,0.29,1.55,0.5,2.27,0.59
		c0.33,0.04,0.67-0.03,0.96-0.2c0.55-0.33,0.93-0.74,1.27-1.14c0.5-0.59,0.93-1.19,1.29-1.58c0.18-0.19,0.34-0.33,0.44-0.39
		l0.1-0.05l0.01,0l-0.01-0.05l0,0.05l0.01,0l-0.01-0.05l0,0.05c0.49-0.04,0.97-0.18,1.39-0.42c0.63-0.36,1.05-0.95,1.26-1.49
		c0.21-0.55,0.26-1.06,0.27-1.52c0-0.27-0.02-0.52-0.05-0.75l0,0l-0.65,0.08h0.66l-0.01-0.08l-0.65,0.08h0.66h-0.28l0.27,0.05
		l0-0.05h-0.28l0.27,0.05c0-0.01,0.07-0.23,0.22-0.5c0.45-0.85,1.56-2.17,2.56-3.09c0.26-0.24,0.58-0.57,0.99-1
		c1.42-1.51,3.83-4.23,6.15-6.99c1.16-1.38,2.3-2.76,3.27-4c0.98-1.24,1.79-2.33,2.34-3.17l-1.26-0.81l1.16,0.95
		c0.72-0.88,2-1.95,3.28-2.94c0.64-0.5,1.28-0.99,1.87-1.47c0.59-0.48,1.11-0.93,1.55-1.4c0.69-0.75,3.7-4.01,6.66-7.44
		c1.48-1.72,2.95-3.47,4.12-5c0.59-0.76,1.1-1.47,1.51-2.1c0.41-0.64,0.72-1.17,0.92-1.77l-1.43-0.46l-0.77,1.29
		c0.39,0.23,0.79,0.43,1.11,0.58c0.32,0.15,0.55,0.25,0.57,0.26l0.59-1.38l-1.14,0.97c0.01,0.01,4.52,5.33,9.95,11.19
		c2.72,2.93,5.66,5.99,8.41,8.6c1.37,1.3,2.69,2.49,3.92,3.5c1.23,1.01,2.35,1.83,3.38,2.42l0.74-1.3l-1.42,0.47
		c0.82,2.42,2.6,4.79,4.97,6.92c2.38,2.12,5.36,4,8.67,5.25l0.53-1.4l-0.56,1.39c1.8,0.72,3.05,1.38,3.82,1.83
		c0.39,0.23,0.66,0.41,0.83,0.53l0.17,0.13l0.03,0.02l0,0l0.58-0.72l-0.59,0.71l0.01,0.01l0.58-0.72l-0.59,0.71
		c0.64,0.53,1.58,0.44,2.11-0.19C108.22,133.38,108.13,132.43,107.49,131.9z"/>
	<path class="st0" d="M110.55,75.07c-0.13,0.02-1.13,0.17-2.26,0.92c-0.56,0.38-1.16,0.91-1.63,1.66c-0.47,0.74-0.8,1.69-0.88,2.8
		c-0.02,0.26-0.03,0.53-0.03,0.79c0,1.42,0.22,2.86,0.43,4.49c0.21,1.62,0.4,3.43,0.4,5.51c0,1.56-0.11,3.28-0.42,5.2l0-0.01
		c-0.32,1.94-0.44,3.78-0.44,5.45c0,4.44,0.82,7.59,0.84,7.68c0.03,0.1,0.07,0.21,0.12,0.31l0.3-0.15l-0.3,0.15l0,0l0.3-0.15
		l-0.3,0.15c0.04,0.06,1.47,2.96,1.46,6.73c0,0.14,0,0.28-0.01,0.42c-0.01,0.24-0.01,0.49-0.01,0.73c0,2.27,0.28,4.52,0.7,6.46
		c0.21,0.97,0.46,1.86,0.74,2.64c0.28,0.78,0.57,1.45,0.94,2.02c0.11,0.16,0.27,0.47,0.43,0.85c0.5,1.16,1.04,3.08,1.03,5.04
		c0,1.77-0.41,3.54-1.53,5.02l1.2,0.9l0.62-1.37c-0.68-0.31-1.14-0.53-1.43-0.66c-0.14-0.07-0.25-0.12-0.31-0.15l-0.07-0.03
		l-0.02-0.01l-0.02-0.01l-0.32,0.65l0.35-0.63l-0.04-0.02l-0.32,0.65l0.35-0.63c0,0-0.59-0.32-1.2-1.33
		c-0.61-1.01-1.27-2.73-1.27-5.66c0-0.76,0.04-1.59,0.15-2.51l0.01-0.09c0.01-0.2,0.01-0.4,0.01-0.6c0-1.35-0.23-2.6-0.57-3.78
		c-0.52-1.78-1.27-3.44-1.96-5.27c-0.7-1.84-1.36-3.86-1.75-6.39l0-0.01c-0.42-2.64-0.96-5.45-1.39-8.18
		c-0.43-2.72-0.75-5.37-0.75-7.61c0-1.53,0.15-2.88,0.47-3.91c0.1-0.34,0.09-0.69-0.05-1.02c-0.02-0.04-0.35-0.85-0.91-1.74
		c-0.28-0.45-0.62-0.92-1.07-1.35c-0.22-0.21-0.48-0.42-0.78-0.59c-0.31-0.17-0.68-0.32-1.11-0.36c-0.21-0.02-0.41-0.02-0.63-0.02
		c-0.71,0-1.66,0.06-2.69,0.11c-1.02,0.05-2.1,0.11-2.99,0.11c-0.43,0-0.81-0.01-1.1-0.04c-0.14-0.01-0.26-0.03-0.35-0.04l-0.1-0.02
		l-0.02-0.01h0c-0.11-0.04-0.38-0.16-0.72-0.32c-1.02-0.46-2.7-1.22-4.77-1.23c-1.57-0.01-3.36,0.47-5.05,1.75
		c-0.12,0.09-0.22,0.19-0.31,0.32c-0.52,0.73-0.76,1.51-0.9,2.21c-0.14,0.71-0.17,1.36-0.17,1.84c0,0.49,0.03,0.81,0.04,0.85
		c0.03,0.31,0.15,0.6,0.35,0.83c0,0,0.22,0.26,0.62,0.73c1.39,1.63,4.87,5.77,8.09,9.9c1.61,2.06,3.15,4.12,4.32,5.84
		c0.58,0.86,1.08,1.63,1.43,2.26c0.35,0.62,0.56,1.13,0.59,1.27l0.07,0.23c0.23,0.53,0.52,0.93,0.91,1.42
		c0.67,0.84,1.59,1.84,2.63,2.9c3.11,3.17,7.21,6.83,7.22,6.85c0.62,0.55,1.57,0.5,2.12-0.12c0.55-0.62,0.5-1.57-0.12-2.12
		c0,0-0.14-0.13-0.4-0.36c-0.91-0.82-3.2-2.91-5.34-5.01c-1.07-1.05-2.1-2.1-2.9-2.98c-0.4-0.44-0.73-0.84-0.97-1.15
		c-0.12-0.16-0.22-0.29-0.28-0.4l-0.07-0.12l-0.02-0.05l-1.39,0.57l1.46-0.34c-0.09-0.39-0.24-0.75-0.42-1.14
		c-0.34-0.72-0.82-1.54-1.41-2.45c-2.06-3.18-5.51-7.56-8.46-11.19c-2.95-3.62-5.4-6.47-5.4-6.48l-1.14,0.98l1.49-0.15l-0.17,0.02
		l0.17-0.02v0l-0.17,0.02l0.17-0.02c0-0.02-0.02-0.24-0.02-0.55c0-0.35,0.03-0.83,0.11-1.28c0.08-0.44,0.24-0.83,0.38-1.02
		l-1.21-0.88l0.9,1.2c1.21-0.9,2.25-1.14,3.25-1.15c0.88,0,1.72,0.22,2.48,0.51c0.38,0.14,0.73,0.3,1.05,0.45
		c0.33,0.15,0.62,0.29,0.94,0.41c0.43,0.15,0.81,0.2,1.23,0.24c0.42,0.04,0.88,0.05,1.36,0.05c1,0,2.12-0.06,3.15-0.11
		c1.03-0.05,1.97-0.11,2.53-0.1c0.17,0,0.3,0,0.36,0.01l0.04-0.39l-0.13,0.37l0.09,0.02l0.04-0.39l-0.13,0.37l0.05-0.14l-0.06,0.13
		l0.01,0l0.05-0.14l-0.06,0.13l0.03,0.02c0.07,0.04,0.25,0.2,0.43,0.43c0.27,0.34,0.55,0.81,0.74,1.17c0.1,0.18,0.17,0.34,0.22,0.46
		l0.06,0.12l0.01,0.03l0,0l0.45-0.19l-0.46,0.19l0,0l0.45-0.19l-0.46,0.19l1.38-0.58l-1.43-0.44c-0.45,1.45-0.6,3.07-0.6,4.79
		c0,2.52,0.34,5.28,0.79,8.08c0.44,2.79,0.98,5.61,1.4,8.19l0-0.01c0.57,3.74,1.7,6.52,2.63,8.84c0.46,1.16,0.88,2.21,1.16,3.2
		c0.29,1,0.45,1.94,0.45,2.95c0,0.15,0,0.3-0.01,0.45l1.5,0.07l-1.49-0.17c-0.11,1.02-0.17,1.97-0.17,2.85
		c0,3.61,0.89,6.01,1.89,7.51c1,1.5,2.05,2.07,2.24,2.16l0.65-1.35l-0.67,1.34c0.02,0.01,0.54,0.27,1.92,0.9
		c0.64,0.29,1.4,0.1,1.82-0.46c1.6-2.14,2.13-4.6,2.13-6.82c0-1.65-0.28-3.2-0.66-4.49c-0.19-0.65-0.4-1.23-0.62-1.73
		c-0.22-0.51-0.44-0.93-0.67-1.29c-0.17-0.26-0.41-0.76-0.63-1.4c-0.68-1.92-1.27-5.08-1.27-8.1c0-0.22,0-0.44,0.01-0.65
		c0-0.17,0.01-0.34,0.01-0.5c-0.01-4.65-1.74-7.98-1.8-8.1l-1.33,0.69l1.45-0.38v0c-0.03-0.1-0.75-2.97-0.74-6.92
		c0-1.53,0.11-3.21,0.4-4.96l0-0.01c0.33-2.08,0.45-3.97,0.45-5.67c0-2.28-0.22-4.23-0.43-5.89c-0.21-1.66-0.41-3.03-0.4-4.11
		c0-0.2,0.01-0.4,0.02-0.58c0.05-0.65,0.22-1.08,0.42-1.41c0.31-0.49,0.76-0.81,1.17-1c0.2-0.09,0.38-0.15,0.5-0.19l0.13-0.03
		l0.02,0l-0.12-0.66l0.1,0.66l0.02,0l-0.12-0.66l0.1,0.66c0.82-0.13,1.38-0.89,1.25-1.71C112.14,75.51,111.37,74.95,110.55,75.07z"
		/>
	<path class="st0" d="M111.33,71.44l-0.41,0.78L111.33,71.44L111.33,71.44l-0.41,0.78L111.33,71.44c0,0-0.06-0.03-0.17-0.1
		c-0.4-0.24-1.41-0.91-2.26-1.93c-0.86-1.02-1.54-2.31-1.54-3.94c0-0.17,0.01-0.35,0.02-0.53l-1.49-0.13l1.08,1.04
		c0.07-0.08,0.2-0.17,0.41-0.25c0.31-0.13,0.77-0.23,1.27-0.34c0.25-0.06,0.52-0.12,0.84-0.26c0.16-0.07,0.34-0.17,0.54-0.33
		c0.19-0.16,0.41-0.4,0.54-0.72c0.12-0.28,0.18-0.54,0.23-0.78c0.13-0.71,0.13-1.35,0.13-1.5v-0.02h-1.5l-0.49,1.42
		c0.09,0.03,1.36,0.47,3.01,0.48c0.65,0,1.37-0.07,2.1-0.31c0.89-0.29,2.41-0.7,3.97-0.7c0.76,0,1.53,0.1,2.25,0.33
		c0.72,0.24,1.4,0.61,2.02,1.19c0.36,0.32,0.92,1.18,1.31,2.26c0.4,1.08,0.66,2.38,0.66,3.63c0,0.81-0.11,1.59-0.34,2.29
		c-0.35,1.06-0.93,1.92-1.92,2.58c-0.99,0.66-2.45,1.13-4.64,1.13c-1.2,0-2.61-0.14-4.24-0.48c-0.52-0.11-1.31-0.24-2.2-0.25
		c-0.76,0-1.62,0.09-2.47,0.5c-0.42,0.21-0.84,0.5-1.19,0.91c-0.35,0.4-0.62,0.9-0.77,1.45c-0.22,0.8,0.24,1.62,1.04,1.85
		c0.8,0.22,1.62-0.24,1.85-1.04c0.05-0.16,0.09-0.23,0.15-0.3c0.08-0.09,0.2-0.18,0.45-0.25c0.24-0.08,0.58-0.12,0.94-0.12
		c0.57,0,1.18,0.1,1.59,0.18c1.8,0.37,3.4,0.54,4.84,0.54c1.75,0,3.26-0.25,4.55-0.74c1.94-0.72,3.35-2,4.19-3.5
		c0.85-1.5,1.16-3.16,1.16-4.77c0-1.66-0.33-3.27-0.84-4.66c-0.52-1.4-1.19-2.57-2.08-3.42c-0.96-0.9-2.05-1.49-3.13-1.85
		c-1.09-0.36-2.17-0.48-3.19-0.48c-2.07,0-3.86,0.52-4.89,0.85c-0.34,0.11-0.76,0.16-1.18,0.16c-0.53,0-1.07-0.08-1.46-0.17
		c-0.19-0.04-0.35-0.08-0.45-0.11l-0.11-0.03l-0.02-0.01l-0.08,0.26l0.09-0.26l0,0l-0.08,0.26l0.09-0.26
		c-0.46-0.16-0.96-0.08-1.36,0.2c-0.4,0.28-0.63,0.73-0.63,1.22v0v0.01c0,0.04,0,0.29-0.03,0.56c-0.01,0.13-0.03,0.27-0.05,0.38
		l-0.03,0.13l-0.01,0.05l0.97,0.41l-0.58-0.89c-0.08,0.05-0.27,0.2-0.39,0.48l0.97,0.41l-0.58-0.89l0.31,0.47l-0.24-0.52l-0.07,0.04
		l0.31,0.47l-0.24-0.52l0.05,0.1l-0.04-0.11l0,0l0.05,0.1l-0.04-0.11c-0.01,0.01-0.17,0.06-0.4,0.11c-0.34,0.08-0.83,0.17-1.37,0.36
		c-0.54,0.19-1.16,0.49-1.69,1.05c-0.24,0.25-0.38,0.57-0.41,0.91c-0.02,0.27-0.04,0.54-0.04,0.8c0,1.45,0.37,2.75,0.9,3.83
		c0.8,1.63,1.96,2.8,2.91,3.58c0.95,0.78,1.71,1.18,1.77,1.21c0.73,0.38,1.64,0.1,2.02-0.64C112.35,72.73,112.06,71.82,111.33,71.44
		z"/>
	<path class="st0" d="M126.08,73.18l0.03-0.45L126.08,73.18L126.08,73.18l0.03-0.45L126.08,73.18c0.03,0,1.82,0.15,3.43,0.83
		c0.81,0.33,1.55,0.79,2.03,1.32c0.24,0.27,0.43,0.55,0.56,0.86c0.13,0.32,0.21,0.67,0.21,1.11c0,0.45-0.08,1-0.31,1.66l0-0.01
		c-0.26,0.74-0.81,1.5-1.58,2.29c-1.16,1.18-2.75,2.34-4.15,3.69c-0.7,0.68-1.36,1.41-1.86,2.28c-0.51,0.86-0.85,1.88-0.85,2.99
		c0,0.67,0.12,1.36,0.37,2.06l1.41-0.5l-1.04-1.08l1,1.04l-0.48-1.37c-0.18,0.06-0.37,0.18-0.53,0.33l1,1.04l-0.48-1.37l0.47,1.34
		v-1.42c-0.13,0-0.29,0.02-0.47,0.08l0.47,1.34v-1.42v1.28l0.57-1.15c-0.08-0.03-0.22-0.12-0.57-0.13v1.28l0.57-1.15l-0.3,0.62
		l0.41-0.55l-0.11-0.06l-0.3,0.62l0.41-0.55l-0.04,0.05l0.04-0.05l0,0l-0.04,0.05l0.04-0.05c-0.02-0.01-0.2-0.18-0.39-0.44
		c-0.29-0.39-0.65-0.99-0.92-1.72c-0.27-0.73-0.46-1.59-0.46-2.53c0-0.91,0.17-1.9,0.64-2.98c0.46-1.08,1.23-2.24,2.44-3.47
		l-1.07-1.06l0.89,1.21c0.54-0.4,0.97-0.88,1.26-1.43c0.29-0.54,0.42-1.14,0.42-1.7c0-0.95-0.35-1.78-0.83-2.46
		c-0.49-0.67-1.13-1.22-1.91-1.55c-0.76-0.32-1.64,0.04-1.96,0.8c-0.32,0.76,0.04,1.64,0.8,1.96c0.19,0.07,0.46,0.28,0.64,0.54
		c0.18,0.25,0.27,0.53,0.27,0.71c0,0.11-0.02,0.19-0.07,0.3c-0.06,0.1-0.16,0.24-0.38,0.41l-0.18,0.15
		c-1.45,1.46-2.44,2.94-3.07,4.4c-0.63,1.45-0.88,2.87-0.88,4.17c0,2.08,0.63,3.81,1.33,5.06c0.35,0.62,0.72,1.12,1.07,1.51
		c0.18,0.19,0.35,0.36,0.55,0.51c0.1,0.08,0.21,0.15,0.37,0.23c0.16,0.07,0.36,0.17,0.76,0.18c0.15,0,0.33-0.02,0.52-0.09
		c0.19-0.07,0.4-0.19,0.56-0.35c0.42-0.41,0.57-1.03,0.37-1.58c-0.14-0.4-0.2-0.74-0.2-1.05c0-0.66,0.25-1.27,0.79-2
		c0.81-1.08,2.28-2.23,3.76-3.5c0.74-0.64,1.48-1.32,2.13-2.09c0.66-0.77,1.24-1.64,1.6-2.65l0-0.01c0.32-0.92,0.47-1.8,0.47-2.63
		c0-0.82-0.16-1.59-0.44-2.28c-0.5-1.2-1.36-2.1-2.27-2.74c-1.38-0.97-2.93-1.46-4.14-1.74c-1.21-0.28-2.1-0.34-2.16-0.35
		c-0.83-0.06-1.54,0.57-1.6,1.39C124.63,72.4,125.26,73.12,126.08,73.18z"/>
	<path class="st0" d="M112.5,131.99c0.01,0.01,2.25,1.58,4.88,3.28c1.32,0.85,2.73,1.74,4.02,2.49c1.3,0.75,2.44,1.35,3.4,1.68
		c1.51,0.5,2.57,0.84,3.09,1.09c0.13,0.06,0.22,0.11,0.27,0.14l0.04,0.03l0.01,0l0.33-0.36l-0.43,0.21c0.05,0.1,0.1,0.15,0.11,0.16
		l0.33-0.36l-0.43,0.21l0.59-0.28h-0.66c0,0.06,0.02,0.19,0.07,0.28l0.59-0.28h-0.66h1.23l-0.98-0.75
		c-0.12,0.15-0.26,0.45-0.25,0.75h1.23l-0.98-0.75l0.74,0.57l-0.51-0.79c-0.04,0.03-0.13,0.08-0.23,0.22l0.74,0.57l-0.51-0.79
		l0.24,0.37l-0.2-0.39l-0.04,0.02l0.24,0.37l-0.2-0.39l0,0.01l0-0.01h0l0,0.01l0-0.01c-0.04,0.02-0.33,0.1-0.72,0.15
		c-0.39,0.05-0.9,0.08-1.48,0.08c-1.72,0-4.04-0.26-6.08-0.84l-0.41,1.44l0.52-1.41c-1.32-0.48-2.77-0.59-4.15-0.6
		c-2.54,0-4.84,0.44-4.89,0.45c-0.81,0.15-1.35,0.94-1.2,1.75c0.15,0.81,0.94,1.35,1.75,1.2l0.02,0c0.21-0.04,2.26-0.39,4.33-0.39
		c1.19-0.01,2.38,0.13,3.11,0.41l0.11,0.04c2.38,0.67,4.89,0.95,6.9,0.95c1.01,0,1.88-0.07,2.61-0.23c0.37-0.09,0.71-0.18,1.09-0.4
		c0.19-0.11,0.4-0.26,0.6-0.52c0.2-0.25,0.38-0.66,0.37-1.08c0-0.28-0.05-0.6-0.17-0.88c-0.21-0.51-0.57-0.88-0.92-1.12
		c-0.53-0.37-1.07-0.59-1.74-0.84c-0.67-0.25-1.47-0.5-2.45-0.83c-0.54-0.17-1.64-0.73-2.85-1.43c-1.84-1.06-4.02-2.47-5.73-3.61
		c-0.86-0.57-1.6-1.07-2.12-1.44c-0.26-0.18-0.47-0.32-0.61-0.42c-0.14-0.1-0.22-0.15-0.22-0.15c-0.68-0.48-1.61-0.31-2.09,0.37
		C111.66,130.58,111.83,131.52,112.5,131.99z"/>
</g>
</svg>
