<svg id="Layer_1" data-name="Layer 1" xmlns="http://www.w3.org/2000/svg" viewBox="0 0 251.05 157.05"><defs><style>.cls-1{fill:#8ed1c2;stroke:#8ed1c2;stroke-width:1.05px;}.cls-1,.cls-3{stroke-miterlimit:10;}.cls-2{fill:#e9e5e2;}.cls-3{fill:none;stroke:#e9e5e2;stroke-width:4.13px;}</style></defs><rect class="cls-1" x="0.53" y="0.53" width="250" height="156"/><path class="cls-2" d="M82.34,118.15c.27,0,.41-.13.41-.39v-10a.36.36,0,0,0-.41-.4V107H86v.4c-.11,0-.17.07-.17.22s.14.32.43.62l6.11,6.56v-7c0-.27-.19-.4-.56-.4V107H95v.4a.36.36,0,0,0-.41.4v10c0,.26.14.39.41.39v.4H91.56v-.4c.18,0,.28-.06.28-.2s-.12-.27-.34-.5l-6.5-7v7.32c0,.26.17.39.49.39v.4H82.34Z" transform="translate(0.53 0.53)"/><path class="cls-2" d="M98.73,118.15c.37,0,.56-.13.56-.39v-10c0-.27-.19-.4-.56-.4V107h3.54v.4c-.37,0-.56.13-.56.4v10c0,.26.19.39.56.39v.4H98.73Z" transform="translate(0.53 0.53)"/><path class="cls-2" d="M113,107a8.7,8.7,0,0,1,1.85.19,4,4,0,0,1,1.43.6,2.64,2.64,0,0,1,.91,1,3.51,3.51,0,0,1,.32,1.6,2.85,2.85,0,0,1-.83,2.22,4.38,4.38,0,0,1-2.23,1l2.83,4.18a.59.59,0,0,0,.35.27,1.73,1.73,0,0,0,.37,0v.4h-4v-.4a.81.81,0,0,0,.33-.06c.09,0,.14-.11.14-.18a.56.56,0,0,0-.08-.25l-.26-.39-2.34-3.43h-3v3.92a.33.33,0,0,0,.14.29.89.89,0,0,0,.5.1v.4h-3.68v-.4c.41,0,.62-.13.62-.39v-10c0-.27-.21-.4-.62-.4V107Zm-.55,5.16a5.8,5.8,0,0,0,1.28-.12,2.12,2.12,0,0,0,.8-.35,1.3,1.3,0,0,0,.43-.51,1.75,1.75,0,0,0,.13-.65,1.67,1.67,0,0,0-.13-.65,1.32,1.32,0,0,0-.43-.52,2.12,2.12,0,0,0-.8-.34,5.8,5.8,0,0,0-1.28-.12H108.8v3.26Z" transform="translate(0.53 0.53)"/><path class="cls-2" d="M133.14,107.36a.67.67,0,0,0-.62.32,4.82,4.82,0,0,0-.28.52l-3.77,8.56c-.12.3-.23.53-.32.71a1.06,1.06,0,0,0-.12.37.26.26,0,0,0,.05.18.89.89,0,0,0,.14.13v.4H125v-.4a.31.31,0,0,0,.19-.31,1.4,1.4,0,0,0-.16-.45q-.15-.35-.39-.84l-3.83-8.62a.7.7,0,0,0-.3-.35,2.82,2.82,0,0,0-.55-.22V107h3.81v.4a.51.51,0,0,0-.29.08.31.31,0,0,0-.14.29,1.53,1.53,0,0,0,.18.62c.12.25.27.56.44.93l2.72,6,2.66-6q.25-.57.48-1a1.8,1.8,0,0,0,.23-.63c0-.23-.2-.35-.6-.35V107h3.73Z" transform="translate(0.53 0.53)"/><path class="cls-2" d="M134.07,118.15a.62.62,0,0,0,.44-.28,4.86,4.86,0,0,0,.31-.56l3.94-8.56.26-.53a1,1,0,0,0,.12-.42.33.33,0,0,0-.15-.31,1.27,1.27,0,0,0-.32-.13V107h3.6v.4a1.88,1.88,0,0,0-.3.12.33.33,0,0,0-.15.32.89.89,0,0,0,.08.35c0,.12.12.27.22.46l4.43,9a.68.68,0,0,0,.29.35,2.6,2.6,0,0,0,.41.22v.4H143.5v-.4a.56.56,0,0,0,.22-.06.23.23,0,0,0,.12-.2,1.34,1.34,0,0,0-.17-.58l-.8-1.62h-5.2l-.77,1.56a1.94,1.94,0,0,0-.21.66c0,.16.14.24.4.24v.4h-3Zm8-4.1L140.31,110l-2,4.09Z" transform="translate(0.53 0.53)"/><path class="cls-2" d="M149.76,118.15c.27,0,.41-.13.41-.39v-10a.36.36,0,0,0-.41-.4V107h3.64v.4c-.11,0-.17.07-.17.22s.14.32.43.62l6.11,6.56v-7c0-.27-.19-.4-.56-.4V107h3.22v.4a.36.36,0,0,0-.41.4v10c0,.26.14.39.41.39v.4H159v-.4c.18,0,.28-.06.28-.2s-.12-.27-.34-.5l-6.5-7v7.32c0,.26.17.39.49.39v.4h-3.15Z" transform="translate(0.53 0.53)"/><path class="cls-2" d="M164.83,118.15a.62.62,0,0,0,.44-.28,4.86,4.86,0,0,0,.31-.56l3.94-8.56c.1-.19.19-.37.26-.53a1,1,0,0,0,.12-.42.33.33,0,0,0-.15-.31,1.13,1.13,0,0,0-.32-.13V107H173v.4l-.3.12a.33.33,0,0,0-.15.32.89.89,0,0,0,.08.35c.05.12.12.27.22.46l4.43,9a.73.73,0,0,0,.29.35,3.14,3.14,0,0,0,.41.22v.4h-3.74v-.4a.57.57,0,0,0,.21-.06.24.24,0,0,0,.13-.2,1.5,1.5,0,0,0-.17-.58l-.81-1.62h-5.2l-.76,1.56a1.8,1.8,0,0,0-.22.66c0,.16.14.24.41.24v.4h-3Zm8-4.1L171.07,110l-2,4.09Z" transform="translate(0.53 0.53)"/><path class="cls-2" d="M92.18,139.75c.69-1.14,1.55-2.7,2.09-3.7,0-.06,0-.09,0,0-.83,1.11-2.16,2.36-3.27,2.36a.91.91,0,0,1-1-.94A5.06,5.06,0,0,1,91,135c1-1.56,1.47-2.32,1.47-2.72a.25.25,0,0,0-.23-.27c-.33,0-.88.38-1.42,1.31a2.41,2.41,0,0,1,2-1.78c.5,0,.85.27.85.72,0,.75-.46,1.53-1.53,3.14A6.1,6.1,0,0,0,91,137.66a.34.34,0,0,0,.37.39c.61,0,2-1,3-2.49.4-.58,1-1.43,1.46-2.32a2.76,2.76,0,0,0,.36-1A.18.18,0,0,0,96,132a.55.55,0,0,0-.4.2,1.13,1.13,0,0,1,1-.64.65.65,0,0,1,.72.69,7.49,7.49,0,0,1-1.09,2.58c-.83,1.53-1.51,2.78-2.2,3.87-1,1.56-2.45,3.47-4.43,3.5-.85,0-1.62-.22-1.62-.92a1.14,1.14,0,0,1,1.23-1,1.16,1.16,0,0,1,.49.1,1,1,0,0,0-.75,1c0,.47.26.68.77.67C90,142.06,90.85,142,92.18,139.75Z" transform="translate(0.53 0.53)"/><path class="cls-2" d="M101.76,135.67c-1.12,1.85-2.55,2.72-3.53,2.72-.79,0-1.51-.43-1.51-1.69a5.47,5.47,0,0,1,1.2-3.1,5.06,5.06,0,0,1,3.59-2.16,1.15,1.15,0,0,1,1.21,1.31A5.72,5.72,0,0,1,101.76,135.67Zm-.11-4c-.89,0-1.93,1.41-2.66,2.61a7.68,7.68,0,0,0-1.28,3.2c0,.62.31.78.63.78.63,0,1.7-1.18,2.63-2.74a8.5,8.5,0,0,0,1.23-3.11C102.2,131.87,102,131.62,101.65,131.62Z" transform="translate(0.53 0.53)"/><path class="cls-2" d="M109.25,132.33c.45,0,.78-.71,1-.64-.35.46-1.28,1.95-1.88,3-.75,1.34-1.42,2.67-2.14,3.86a9.38,9.38,0,0,1-2.24,2.74,3.77,3.77,0,0,1-2.34.91c-.82,0-1.59-.22-1.59-.92a1.13,1.13,0,0,1,1.23-1,1.2,1.2,0,0,1,.49.1,1.05,1.05,0,0,0-.76,1c0,.47.27.67.76.67s1.24-.15,2.54-2.31c.53-.89,1.42-2.49,2-3.5,0-.05,0-.11-.06,0a12.46,12.46,0,0,1-.91,1.17,2.65,2.65,0,0,1-1.77,1c-.7,0-1.19-.43-1.19-1.36a6.27,6.27,0,0,1,5.24-5.55c.48,0,.91.23.88.8A2,2,0,0,0,109.25,132.33Zm-1.51-.67c-1.07,0-2.51,1.89-3.14,2.86a7,7,0,0,0-1.28,3c0,.34.17.54.45.54a2.38,2.38,0,0,0,1.42-.93,17.72,17.72,0,0,0,2.25-3.23c.26-.43.72-1.23.82-1.43C108.35,132,108.07,131.66,107.74,131.66Z" transform="translate(0.53 0.53)"/><path class="cls-2" d="M112.54,137.36a2.75,2.75,0,0,1,.28-1.11c0-.05,0-.11,0,0a14.39,14.39,0,0,1-.91,1.17,2.65,2.65,0,0,1-1.78,1c-.7,0-1.19-.43-1.19-1.36a5.4,5.4,0,0,1,1.3-3.21,5.48,5.48,0,0,1,3.93-2.34c.47,0,.93.21.89.8a2.55,2.55,0,0,0,.85.07c.49,0,.77-.69,1-.64a55.63,55.63,0,0,0-2.91,4.8,2.88,2.88,0,0,0-.41,1.17.39.39,0,0,0,.41.42,2.41,2.41,0,0,0,1.51-1,8.22,8.22,0,0,0,1.22-1.81,5.19,5.19,0,0,1-1.06,1.9,2.85,2.85,0,0,1-2,1.24A1,1,0,0,1,112.54,137.36Zm1.77-5.7c-1.07,0-2.51,1.87-3.14,2.86a7.1,7.1,0,0,0-1.28,3c0,.34.18.54.46.54a2.41,2.41,0,0,0,1.42-.93,18.45,18.45,0,0,0,2.24-3.23c.25-.41.74-1.25.83-1.43C114.93,131.93,114.64,131.66,114.31,131.66Z" transform="translate(0.53 0.53)"/><path class="cls-2" d="M123,137.36a2.75,2.75,0,0,1,.28-1.11c0-.05,0-.11,0,0a12.46,12.46,0,0,1-.91,1.17,2.65,2.65,0,0,1-1.77,1c-.7,0-1.2-.43-1.2-1.36a5.4,5.4,0,0,1,1.3-3.21,5.49,5.49,0,0,1,3.93-2.34c.48,0,.93.21.9.8a2.45,2.45,0,0,0,.84.07c.49,0,.77-.69,1-.64a55.63,55.63,0,0,0-2.91,4.8,2.82,2.82,0,0,0-.4,1.17.38.38,0,0,0,.4.42,2.41,2.41,0,0,0,1.51-1,8.26,8.26,0,0,0,1.23-1.81,5.21,5.21,0,0,1-1.07,1.9,2.85,2.85,0,0,1-2,1.24A1,1,0,0,1,123,137.36Zm1.77-5.7c-1.07,0-2.5,1.87-3.13,2.86a7,7,0,0,0-1.29,3c0,.34.18.54.46.54a2.41,2.41,0,0,0,1.42-.93,18.45,18.45,0,0,0,2.25-3.23c.24-.41.73-1.25.82-1.43C125.41,131.93,125.13,131.66,124.79,131.66Z" transform="translate(0.53 0.53)"/><path class="cls-2" d="M126.26,136.83a5.33,5.33,0,0,1,1.16-3,5.47,5.47,0,0,1,4-2.41.85.85,0,0,1,.93.94c0,.91-.48,1.75-1,1.75a.38.38,0,0,1-.42-.39c0-.67,1-1.19,1-1.81a.32.32,0,0,0-.35-.31c-.69,0-1.93.91-3.2,3a5.82,5.82,0,0,0-1,2.74.73.73,0,0,0,.81.76,4,4,0,0,0,2.47-1.14,9.11,9.11,0,0,0,1.9-2.4,6.72,6.72,0,0,1-1.84,2.6,4.29,4.29,0,0,1-2.76,1.2A1.47,1.47,0,0,1,126.26,136.83Z" transform="translate(0.53 0.53)"/><path class="cls-2" d="M135,137.36a2.75,2.75,0,0,1,.28-1.11c0-.05,0-.11,0,0a12.46,12.46,0,0,1-.91,1.17,2.65,2.65,0,0,1-1.77,1c-.7,0-1.19-.43-1.19-1.36a6.28,6.28,0,0,1,5.22-5.55c.48,0,.93.21.9.8a2.45,2.45,0,0,0,.84.07c.49,0,.77-.69,1-.64a56,56,0,0,0-2.92,4.8,2.82,2.82,0,0,0-.4,1.17.38.38,0,0,0,.4.42,2.39,2.39,0,0,0,1.51-1,8.26,8.26,0,0,0,1.23-1.81,5.07,5.07,0,0,1-1.07,1.9,2.85,2.85,0,0,1-2,1.24A1,1,0,0,1,135,137.36Zm1.78-5.7c-1.08,0-2.51,1.87-3.14,2.86a7,7,0,0,0-1.28,3c0,.34.17.54.45.54a2.38,2.38,0,0,0,1.42-.93,18.45,18.45,0,0,0,2.25-3.23c.24-.41.73-1.25.82-1.43C137.4,131.93,137.12,131.66,136.79,131.66Z" transform="translate(0.53 0.53)"/><path class="cls-2" d="M146.34,129.37c.56-.82.72-.94,1-.94h.49c.51,0,.81-.79,1.06-.79-1.49,2-2.83,4.25-3.74,5.72s-1.37,2.36-1.77,3.13a2.74,2.74,0,0,0-.4,1.17.38.38,0,0,0,.4.42,2.41,2.41,0,0,0,1.51-1,8.62,8.62,0,0,0,1.23-1.81,5.36,5.36,0,0,1-1.07,1.9,2.85,2.85,0,0,1-2,1.24,1,1,0,0,1-1-1,2.75,2.75,0,0,1,.28-1.11c0-.05,0-.11-.05,0a14.39,14.39,0,0,1-.91,1.17,2.65,2.65,0,0,1-1.77,1c-.71,0-1.2-.43-1.2-1.36a5.4,5.4,0,0,1,1.3-3.21,5.48,5.48,0,0,1,3.93-2.34c.49,0,1,.21.88.85C145,131.37,145.81,130.15,146.34,129.37Zm-2.58,2.29c-1.08,0-2.51,1.87-3.14,2.86a7.2,7.2,0,0,0-1.28,3c0,.34.18.54.46.54a2.41,2.41,0,0,0,1.42-.93,18.23,18.23,0,0,0,2.25-3.23c.26-.43.71-1.23.82-1.43C144.38,131.93,144.1,131.66,143.76,131.66Z" transform="translate(0.53 0.53)"/><path class="cls-2" d="M148.92,137.17c.36-.4,1.06-1.39,1-2a.78.78,0,0,1,.1.38,2.84,2.84,0,0,1-.91,1.85,3.17,3.17,0,0,1-2.22,1,1.43,1.43,0,0,1-1.62-1.54,5.76,5.76,0,0,1,1.56-3.54,5.16,5.16,0,0,1,3.6-1.87c.68,0,1.12.36,1.12.92,0,1.2-1.19,2.15-2.74,2.15a1.28,1.28,0,0,1-1.1-.46,7,7,0,0,0-1.37,3.31.73.73,0,0,0,.77.83A2.88,2.88,0,0,0,148.92,137.17Zm1.57-5.55c-.61,0-1.28.62-1.8,1.16a9.63,9.63,0,0,0-.95,1.18,1.25,1.25,0,0,0,.86.37,2.69,2.69,0,0,0,2.28-2.29A.37.37,0,0,0,150.49,131.62Z" transform="translate(0.53 0.53)"/><path class="cls-2" d="M152.75,132.33a.26.26,0,0,0-.28-.29c-.44,0-.91.51-1.42,1.21a2.52,2.52,0,0,1,2.07-1.7.71.71,0,0,1,.79.74,3.14,3.14,0,0,1-.63,1.62c-.05.07,0,.11.05.05.81-1.07,1.95-2.39,3-2.39.62,0,.95.3.95.87a2.85,2.85,0,0,1-.62,1.47c0,.09,0,.12.06.05,1-1.32,2.05-2.39,3-2.39a.9.9,0,0,1,1,1c0,.67-.37,1.36-1.24,2.63a5.7,5.7,0,0,0-1.28,2.5.37.37,0,0,0,.4.42A2.7,2.7,0,0,0,160.1,137a8.67,8.67,0,0,0,1.16-1.72,5.23,5.23,0,0,1-1,1.85,3.06,3.06,0,0,1-2.09,1.29.93.93,0,0,1-1-1,5.74,5.74,0,0,1,1.33-2.9,5.34,5.34,0,0,0,1.19-2.18c0-.2-.08-.36-.33-.36-.46,0-1.42.72-2.6,2.23A16.61,16.61,0,0,0,155,137a2.62,2.62,0,0,0-.42,1.43.86.86,0,0,1-.72-1,4.81,4.81,0,0,1,1-2.45,8.64,8.64,0,0,0,1.47-2.69c0-.2-.09-.34-.32-.34-.58,0-1.56.85-2.61,2.23a16.33,16.33,0,0,0-1.77,2.78,2.91,2.91,0,0,0-.48,1.43.82.82,0,0,1-.7-.89,5.23,5.23,0,0,1,1-2.5A8.6,8.6,0,0,0,152.75,132.33Z" transform="translate(0.53 0.53)"/><path class="cls-2" d="M162.52,139.75c.68-1.14,1.54-2.7,2.08-3.7,0-.06,0-.09,0,0-.82,1.11-2.16,2.36-3.26,2.36a.91.91,0,0,1-1-.94,5,5,0,0,1,1.05-2.42c1-1.56,1.47-2.32,1.47-2.72a.24.24,0,0,0-.23-.27c-.33,0-.87.38-1.42,1.31a2.41,2.41,0,0,1,2-1.78.74.74,0,0,1,.84.72c0,.75-.46,1.53-1.53,3.14a6.1,6.1,0,0,0-1.14,2.25.34.34,0,0,0,.37.39c.61,0,2-1,3-2.49a25.55,25.55,0,0,0,1.46-2.32,2.64,2.64,0,0,0,.37-1,.19.19,0,0,0-.2-.2.55.55,0,0,0-.4.2,1.13,1.13,0,0,1,1-.64.65.65,0,0,1,.72.69,7.49,7.49,0,0,1-1.09,2.58c-.82,1.53-1.51,2.78-2.19,3.87-1,1.56-2.46,3.47-4.44,3.5-.84,0-1.62-.22-1.62-.92a1.14,1.14,0,0,1,1.23-1,1.16,1.16,0,0,1,.49.1,1,1,0,0,0-.75,1c0,.47.26.68.77.67C160.31,142.06,161.18,142,162.52,139.75Z" transform="translate(0.53 0.53)"/><polyline class="cls-3" points="125.98 56.57 113.7 69.99 114.25 85.72 125.98 74.23 125.98 37.07"/><path class="cls-3" d="M108,56.41h35.11l10.06,11.36c5.9,5.94-.12,25.79-14.85,18.82.24,8.86-19.77,13.32-24.92-.49-8.11,5.16-19.89-3.87-16.7-17-9.82-6.19-10.8-19.61,1-25.29C92.3,34.22,102.12,20,114.39,26.4c1.86-10.89,19.84-12.7,23.34-.61,11.78-2.93,20.87,8.17,16.45,18" transform="translate(0.53 0.53)"/><path class="cls-3" d="M143.13,56.41l11.05-12.64c10.43,4.39,11.78,21.42,0,24.55" transform="translate(0.53 0.53)"/><line class="cls-3" x1="125.98" y1="56.57" x2="138.87" y2="43.52"/><polyline class="cls-3" points="125.73 37.68 138.01 26.93 138.62 44.13 154.46 44.9"/><line class="cls-3" x1="125.98" y1="37.07" x2="114.92" y2="26.93"/><polyline class="cls-3" points="114.92 26.93 113.62 43.52 98.23 44.3"/><line class="cls-3" x1="113.62" y1="43.52" x2="125.98" y2="56.57"/><polyline class="cls-3" points="113.7 69.99 97.76 69.57 109.39 56.05 98.23 44.3"/><line class="cls-3" x1="138.01" y1="69.46" x2="154.7" y2="68.85"/><polyline class="cls-3" points="125.98 74.23 137.84 86.32 137.39 68.81 125.36 56.62"/></svg>